<mxfile host="Electron" modified="2024-05-16T22:08:26.149Z" agent="Mozilla/5.0 (Windows NT 10.0; Win64; x64) AppleWebKit/537.36 (KHTML, like Gecko) draw.io/24.4.0 Chrome/120.0.6099.109 Electron/28.1.0 Safari/537.36" etag="KH52KF_M03KP6-c6xb7s" version="24.4.0" type="device">
  <diagram id="R2lEEEUBdFMjLlhIrx00" name="Page-1">
    <mxGraphModel dx="2392" dy="2098" grid="1" gridSize="10" guides="1" tooltips="1" connect="1" arrows="1" fold="1" page="1" pageScale="1" pageWidth="850" pageHeight="1100" math="0" shadow="0" extFonts="Permanent Marker^https://fonts.googleapis.com/css?family=Permanent+Marker">
      <root>
        <mxCell id="0" />
        <mxCell id="1" parent="0" />
        <mxCell id="VFh9iW4sONz-iv-2uf0R-1" value="&lt;b&gt;&lt;font style=&quot;font-size: 18px;&quot;&gt;Patient&lt;/font&gt;&lt;/b&gt;" style="rounded=0;whiteSpace=wrap;html=1;fillColor=#ffcc99;strokeColor=#36393d;fontColor=#000000;" parent="1" vertex="1">
          <mxGeometry x="140" y="-330" width="130" height="60" as="geometry" />
        </mxCell>
        <mxCell id="VFh9iW4sONz-iv-2uf0R-2" value="&lt;b&gt;&lt;font style=&quot;font-size: 18px;&quot;&gt;Doctor&lt;/font&gt;&lt;/b&gt;" style="rounded=0;whiteSpace=wrap;html=1;fillColor=#ffcc99;strokeColor=#36393d;fontColor=#000000;" parent="1" vertex="1">
          <mxGeometry x="740" y="-320" width="120" height="60" as="geometry" />
        </mxCell>
        <mxCell id="VFh9iW4sONz-iv-2uf0R-3" value="&lt;b&gt;&lt;font style=&quot;font-size: 18px;&quot;&gt;Employee&lt;/font&gt;&lt;/b&gt;" style="rounded=0;whiteSpace=wrap;html=1;fillColor=#ffcc99;strokeColor=#36393d;fontColor=#000000;" parent="1" vertex="1">
          <mxGeometry x="740" y="-60" width="120" height="60" as="geometry" />
        </mxCell>
        <mxCell id="VFh9iW4sONz-iv-2uf0R-5" value="&lt;b&gt;&lt;font style=&quot;font-size: 18px;&quot;&gt;Pharmacy&lt;/font&gt;&lt;/b&gt;" style="rounded=0;whiteSpace=wrap;html=1;fillColor=#ffcc99;strokeColor=#36393d;fontColor=#000000;" parent="1" vertex="1">
          <mxGeometry x="710" y="230" width="120" height="60" as="geometry" />
        </mxCell>
        <mxCell id="VFh9iW4sONz-iv-2uf0R-6" value="&lt;b&gt;&lt;font style=&quot;font-size: 18px;&quot;&gt;Drug_Manufacturer&lt;/font&gt;&lt;/b&gt;" style="rounded=0;whiteSpace=wrap;html=1;fillColor=#ffcc99;strokeColor=#36393d;fontColor=#000000;" parent="1" vertex="1">
          <mxGeometry x="60" y="210" width="180" height="60" as="geometry" />
        </mxCell>
        <mxCell id="VFh9iW4sONz-iv-2uf0R-7" value="&lt;b&gt;&lt;font style=&quot;font-size: 18px;&quot;&gt;Drug&lt;/font&gt;&lt;/b&gt;" style="rounded=0;whiteSpace=wrap;html=1;fillColor=#ffcc99;strokeColor=#36393d;fontColor=#000000;" parent="1" vertex="1">
          <mxGeometry x="400" y="-40" width="120" height="60" as="geometry" />
        </mxCell>
        <mxCell id="VFh9iW4sONz-iv-2uf0R-14" value="&lt;font style=&quot;font-size: 15px;&quot; color=&quot;#000000&quot;&gt;Name&lt;/font&gt;" style="ellipse;whiteSpace=wrap;html=1;fillColor=#ffcc99;strokeColor=#36393d;" parent="1" vertex="1">
          <mxGeometry x="140" y="-460" width="90" height="60" as="geometry" />
        </mxCell>
        <mxCell id="VFh9iW4sONz-iv-2uf0R-16" value="&lt;font style=&quot;font-size: 15px;&quot; color=&quot;#000000&quot;&gt;Contact_NO&lt;/font&gt;" style="ellipse;whiteSpace=wrap;html=1;fillColor=#ffcc99;strokeColor=#36393d;" parent="1" vertex="1">
          <mxGeometry x="230" y="-220" width="90" height="60" as="geometry" />
        </mxCell>
        <mxCell id="VFh9iW4sONz-iv-2uf0R-17" value="&lt;font style=&quot;font-size: 15px;&quot; color=&quot;#000000&quot;&gt;Address&lt;/font&gt;" style="ellipse;whiteSpace=wrap;html=1;fillColor=#ffcc99;strokeColor=#36393d;" parent="1" vertex="1">
          <mxGeometry x="130" y="-220" width="90" height="60" as="geometry" />
        </mxCell>
        <mxCell id="VFh9iW4sONz-iv-2uf0R-18" value="&lt;font style=&quot;font-size: 15px;&quot; color=&quot;#000000&quot;&gt;Sex&lt;/font&gt;" style="ellipse;whiteSpace=wrap;html=1;fillColor=#ffcc99;strokeColor=#36393d;" parent="1" vertex="1">
          <mxGeometry x="20" y="-450" width="90" height="60" as="geometry" />
        </mxCell>
        <mxCell id="VFh9iW4sONz-iv-2uf0R-19" value="&lt;font style=&quot;font-size: 15px;&quot; color=&quot;#000000&quot;&gt;&lt;u&gt;P_ID&lt;/u&gt;&lt;/font&gt;" style="ellipse;whiteSpace=wrap;html=1;fillColor=#ffcc99;strokeColor=#36393d;" parent="1" vertex="1">
          <mxGeometry x="20" y="-340" width="90" height="60" as="geometry" />
        </mxCell>
        <mxCell id="VFh9iW4sONz-iv-2uf0R-20" value="&lt;font style=&quot;font-size: 15px;&quot; color=&quot;#000000&quot;&gt;Insurance_Info&lt;/font&gt;" style="ellipse;whiteSpace=wrap;html=1;fillColor=#ffcc99;strokeColor=#36393d;" parent="1" vertex="1">
          <mxGeometry x="240" y="-450" width="110" height="60" as="geometry" />
        </mxCell>
        <mxCell id="VFh9iW4sONz-iv-2uf0R-21" value="&lt;font style=&quot;font-size: 15px;&quot; color=&quot;#000000&quot;&gt;D_Name&lt;/font&gt;" style="ellipse;whiteSpace=wrap;html=1;fillColor=#ffcc99;strokeColor=#36393d;" parent="1" vertex="1">
          <mxGeometry x="830" y="-450" width="90" height="60" as="geometry" />
        </mxCell>
        <mxCell id="VFh9iW4sONz-iv-2uf0R-22" value="&lt;font style=&quot;font-size: 15px;&quot; color=&quot;#000000&quot;&gt;Speciality&lt;/font&gt;" style="ellipse;whiteSpace=wrap;html=1;fillColor=#ffcc99;strokeColor=#36393d;" parent="1" vertex="1">
          <mxGeometry x="830" y="-240" width="90" height="60" as="geometry" />
        </mxCell>
        <mxCell id="VFh9iW4sONz-iv-2uf0R-23" value="&lt;font color=&quot;#000000&quot;&gt;&lt;span style=&quot;font-size: 15px;&quot;&gt;&lt;u&gt;D_ID&lt;/u&gt;&lt;/span&gt;&lt;/font&gt;" style="ellipse;whiteSpace=wrap;html=1;fillColor=#ffcc99;strokeColor=#36393d;" parent="1" vertex="1">
          <mxGeometry x="710" y="-450" width="90" height="60" as="geometry" />
        </mxCell>
        <mxCell id="VFh9iW4sONz-iv-2uf0R-24" value="&lt;font style=&quot;font-size: 15px;&quot; color=&quot;#000000&quot;&gt;&lt;u&gt;E_ID&lt;/u&gt;&lt;/font&gt;" style="ellipse;whiteSpace=wrap;html=1;fillColor=#ffcc99;strokeColor=#36393d;" parent="1" vertex="1">
          <mxGeometry x="690" y="-170" width="90" height="60" as="geometry" />
        </mxCell>
        <mxCell id="VFh9iW4sONz-iv-2uf0R-25" value="&lt;font color=&quot;#000000&quot;&gt;&lt;span style=&quot;font-size: 15px;&quot;&gt;Emp_Name&lt;/span&gt;&lt;/font&gt;" style="ellipse;whiteSpace=wrap;html=1;fillColor=#ffcc99;strokeColor=#36393d;" parent="1" vertex="1">
          <mxGeometry x="810" y="-170" width="90" height="60" as="geometry" />
        </mxCell>
        <mxCell id="VFh9iW4sONz-iv-2uf0R-27" value="&lt;font style=&quot;font-size: 15px;&quot; color=&quot;#000000&quot;&gt;&lt;u&gt;Trade_Name&lt;/u&gt;&lt;/font&gt;" style="ellipse;whiteSpace=wrap;html=1;fillColor=#ffcc99;strokeColor=#36393d;" parent="1" vertex="1">
          <mxGeometry x="410" y="70" width="110" height="60" as="geometry" />
        </mxCell>
        <mxCell id="VFh9iW4sONz-iv-2uf0R-28" value="&lt;font style=&quot;font-size: 15px;&quot; color=&quot;#000000&quot;&gt;&lt;u&gt;Phar_ID&lt;/u&gt;&lt;/font&gt;" style="ellipse;whiteSpace=wrap;html=1;fillColor=#ffcc99;strokeColor=#36393d;" parent="1" vertex="1">
          <mxGeometry x="600" y="310" width="110" height="60" as="geometry" />
        </mxCell>
        <mxCell id="VFh9iW4sONz-iv-2uf0R-29" value="&lt;font color=&quot;#000000&quot;&gt;&lt;span style=&quot;font-size: 15px;&quot;&gt;Name&lt;/span&gt;&lt;/font&gt;" style="ellipse;whiteSpace=wrap;html=1;fillColor=#ffcc99;strokeColor=#36393d;" parent="1" vertex="1">
          <mxGeometry x="670" y="380" width="90" height="60" as="geometry" />
        </mxCell>
        <mxCell id="VFh9iW4sONz-iv-2uf0R-30" value="&lt;font color=&quot;#000000&quot;&gt;&lt;span style=&quot;font-size: 15px;&quot;&gt;Address&lt;/span&gt;&lt;/font&gt;" style="ellipse;whiteSpace=wrap;html=1;fillColor=#ffcc99;strokeColor=#36393d;" parent="1" vertex="1">
          <mxGeometry x="790" y="380" width="90" height="60" as="geometry" />
        </mxCell>
        <mxCell id="VFh9iW4sONz-iv-2uf0R-31" value="&lt;font color=&quot;#000000&quot;&gt;&lt;span style=&quot;font-size: 15px;&quot;&gt;Fax&lt;/span&gt;&lt;/font&gt;" style="ellipse;whiteSpace=wrap;html=1;fillColor=#ffcc99;strokeColor=#36393d;" parent="1" vertex="1">
          <mxGeometry x="840" y="300" width="90" height="60" as="geometry" />
        </mxCell>
        <mxCell id="VFh9iW4sONz-iv-2uf0R-32" value="&lt;font style=&quot;font-size: 15px;&quot; color=&quot;#000000&quot;&gt;&lt;u&gt;Company_ID&lt;/u&gt;&lt;/font&gt;" style="ellipse;whiteSpace=wrap;html=1;fillColor=#ffcc99;strokeColor=#36393d;" parent="1" vertex="1">
          <mxGeometry x="-30" y="310" width="110" height="60" as="geometry" />
        </mxCell>
        <mxCell id="VFh9iW4sONz-iv-2uf0R-33" value="&lt;font color=&quot;#000000&quot;&gt;&lt;span style=&quot;font-size: 15px;&quot;&gt;Name&lt;/span&gt;&lt;/font&gt;" style="ellipse;whiteSpace=wrap;html=1;fillColor=#ffcc99;strokeColor=#36393d;" parent="1" vertex="1">
          <mxGeometry x="70" y="370" width="90" height="60" as="geometry" />
        </mxCell>
        <mxCell id="VFh9iW4sONz-iv-2uf0R-34" value="&lt;font color=&quot;#000000&quot;&gt;&lt;span style=&quot;font-size: 15px;&quot;&gt;Address&lt;/span&gt;&lt;/font&gt;" style="ellipse;whiteSpace=wrap;html=1;fillColor=#ffcc99;strokeColor=#36393d;" parent="1" vertex="1">
          <mxGeometry x="180" y="330" width="90" height="60" as="geometry" />
        </mxCell>
        <mxCell id="VFh9iW4sONz-iv-2uf0R-35" value="" style="endArrow=none;html=1;rounded=0;exitX=0.871;exitY=-0.027;exitDx=0;exitDy=0;strokeColor=#FFFFFF;exitPerimeter=0;" parent="1" source="VFh9iW4sONz-iv-2uf0R-1" edge="1">
          <mxGeometry width="50" height="50" relative="1" as="geometry">
            <mxPoint x="230" y="-340" as="sourcePoint" />
            <mxPoint x="280" y="-390" as="targetPoint" />
          </mxGeometry>
        </mxCell>
        <mxCell id="VFh9iW4sONz-iv-2uf0R-36" value="" style="endArrow=none;html=1;rounded=0;exitX=0.335;exitY=0.022;exitDx=0;exitDy=0;strokeColor=#FFFFFF;exitPerimeter=0;" parent="1" source="VFh9iW4sONz-iv-2uf0R-1" edge="1">
          <mxGeometry width="50" height="50" relative="1" as="geometry">
            <mxPoint x="150" y="-340" as="sourcePoint" />
            <mxPoint x="192" y="-400" as="targetPoint" />
          </mxGeometry>
        </mxCell>
        <mxCell id="VFh9iW4sONz-iv-2uf0R-37" value="" style="endArrow=none;html=1;rounded=0;exitX=0.121;exitY=0.046;exitDx=0;exitDy=0;strokeColor=#FFFFFF;exitPerimeter=0;" parent="1" source="VFh9iW4sONz-iv-2uf0R-1" edge="1">
          <mxGeometry width="50" height="50" relative="1" as="geometry">
            <mxPoint x="90" y="-329" as="sourcePoint" />
            <mxPoint x="98" y="-400" as="targetPoint" />
          </mxGeometry>
        </mxCell>
        <mxCell id="VFh9iW4sONz-iv-2uf0R-38" value="" style="endArrow=none;html=1;rounded=0;exitX=0;exitY=0.5;exitDx=0;exitDy=0;strokeColor=#FFFFFF;" parent="1" source="VFh9iW4sONz-iv-2uf0R-1" edge="1">
          <mxGeometry width="50" height="50" relative="1" as="geometry">
            <mxPoint x="168" y="-230" as="sourcePoint" />
            <mxPoint x="110" y="-303" as="targetPoint" />
          </mxGeometry>
        </mxCell>
        <mxCell id="VFh9iW4sONz-iv-2uf0R-42" value="" style="endArrow=none;html=1;rounded=0;strokeColor=#FFFFFF;entryX=0.25;entryY=1;entryDx=0;entryDy=0;" parent="1" source="VFh9iW4sONz-iv-2uf0R-17" target="VFh9iW4sONz-iv-2uf0R-1" edge="1">
          <mxGeometry width="50" height="50" relative="1" as="geometry">
            <mxPoint x="140" y="-202" as="sourcePoint" />
            <mxPoint x="167" y="-260" as="targetPoint" />
          </mxGeometry>
        </mxCell>
        <mxCell id="VFh9iW4sONz-iv-2uf0R-43" value="" style="endArrow=none;html=1;rounded=0;exitX=0.5;exitY=0;exitDx=0;exitDy=0;strokeColor=#FFFFFF;" parent="1" source="VFh9iW4sONz-iv-2uf0R-16" edge="1">
          <mxGeometry width="50" height="50" relative="1" as="geometry">
            <mxPoint x="203" y="-212" as="sourcePoint" />
            <mxPoint x="230" y="-270" as="targetPoint" />
          </mxGeometry>
        </mxCell>
        <mxCell id="VFh9iW4sONz-iv-2uf0R-44" value="" style="endArrow=none;html=1;rounded=0;exitX=0.823;exitY=0.002;exitDx=0;exitDy=0;strokeColor=#FFFFFF;exitPerimeter=0;entryX=0.5;entryY=1;entryDx=0;entryDy=0;" parent="1" source="VFh9iW4sONz-iv-2uf0R-2" target="VFh9iW4sONz-iv-2uf0R-21" edge="1">
          <mxGeometry width="50" height="50" relative="1" as="geometry">
            <mxPoint x="853" y="-330" as="sourcePoint" />
            <mxPoint x="880" y="-388" as="targetPoint" />
          </mxGeometry>
        </mxCell>
        <mxCell id="VFh9iW4sONz-iv-2uf0R-45" value="" style="endArrow=none;html=1;rounded=0;exitX=0.25;exitY=0;exitDx=0;exitDy=0;strokeColor=#FFFFFF;" parent="1" source="VFh9iW4sONz-iv-2uf0R-2" edge="1">
          <mxGeometry width="50" height="50" relative="1" as="geometry">
            <mxPoint x="737" y="-330" as="sourcePoint" />
            <mxPoint x="770" y="-390" as="targetPoint" />
          </mxGeometry>
        </mxCell>
        <mxCell id="VFh9iW4sONz-iv-2uf0R-46" value="" style="endArrow=none;html=1;rounded=0;exitX=0;exitY=0;exitDx=0;exitDy=0;strokeColor=#FFFFFF;" parent="1" source="VFh9iW4sONz-iv-2uf0R-22" edge="1">
          <mxGeometry width="50" height="50" relative="1" as="geometry">
            <mxPoint x="820" y="-190" as="sourcePoint" />
            <mxPoint x="820" y="-260" as="targetPoint" />
          </mxGeometry>
        </mxCell>
        <mxCell id="VFh9iW4sONz-iv-2uf0R-48" value="" style="endArrow=none;html=1;rounded=0;strokeColor=#FFFFFF;entryX=0.5;entryY=1;entryDx=0;entryDy=0;" parent="1" source="VFh9iW4sONz-iv-2uf0R-3" edge="1">
          <mxGeometry width="50" height="50" relative="1" as="geometry">
            <mxPoint x="704" y="-40" as="sourcePoint" />
            <mxPoint x="740" y="-110" as="targetPoint" />
          </mxGeometry>
        </mxCell>
        <mxCell id="VFh9iW4sONz-iv-2uf0R-49" value="" style="endArrow=none;html=1;rounded=0;strokeColor=#FFFFFF;entryX=0.5;entryY=1;entryDx=0;entryDy=0;exitX=0.75;exitY=0;exitDx=0;exitDy=0;" parent="1" source="VFh9iW4sONz-iv-2uf0R-3" edge="1">
          <mxGeometry width="50" height="50" relative="1" as="geometry">
            <mxPoint x="898" y="-60" as="sourcePoint" />
            <mxPoint x="860" y="-110" as="targetPoint" />
          </mxGeometry>
        </mxCell>
        <mxCell id="VFh9iW4sONz-iv-2uf0R-51" value="" style="endArrow=none;html=1;rounded=0;strokeColor=#FFFFFF;entryX=0.75;entryY=1;entryDx=0;entryDy=0;exitX=0;exitY=0;exitDx=0;exitDy=0;" parent="1" source="VFh9iW4sONz-iv-2uf0R-31" target="VFh9iW4sONz-iv-2uf0R-5" edge="1">
          <mxGeometry width="50" height="50" relative="1" as="geometry">
            <mxPoint x="840" y="330" as="sourcePoint" />
            <mxPoint x="802" y="280" as="targetPoint" />
          </mxGeometry>
        </mxCell>
        <mxCell id="VFh9iW4sONz-iv-2uf0R-53" value="" style="endArrow=none;html=1;rounded=0;strokeColor=#FFFFFF;entryX=0.75;entryY=1;entryDx=0;entryDy=0;exitX=0.281;exitY=0.029;exitDx=0;exitDy=0;exitPerimeter=0;" parent="1" source="VFh9iW4sONz-iv-2uf0R-30" edge="1">
          <mxGeometry width="50" height="50" relative="1" as="geometry">
            <mxPoint x="820" y="330" as="sourcePoint" />
            <mxPoint x="780" y="290" as="targetPoint" />
          </mxGeometry>
        </mxCell>
        <mxCell id="VFh9iW4sONz-iv-2uf0R-54" value="" style="endArrow=none;html=1;rounded=0;strokeColor=#FFFFFF;entryX=0.75;entryY=1;entryDx=0;entryDy=0;exitX=0.684;exitY=0.041;exitDx=0;exitDy=0;exitPerimeter=0;" parent="1" source="VFh9iW4sONz-iv-2uf0R-29" edge="1">
          <mxGeometry width="50" height="50" relative="1" as="geometry">
            <mxPoint x="787.5" y="382" as="sourcePoint" />
            <mxPoint x="752.5" y="290" as="targetPoint" />
          </mxGeometry>
        </mxCell>
        <mxCell id="VFh9iW4sONz-iv-2uf0R-55" value="" style="endArrow=none;html=1;rounded=0;strokeColor=#FFFFFF;entryX=0.75;entryY=1;entryDx=0;entryDy=0;exitX=0.749;exitY=0.058;exitDx=0;exitDy=0;exitPerimeter=0;" parent="1" source="VFh9iW4sONz-iv-2uf0R-28" edge="1">
          <mxGeometry width="50" height="50" relative="1" as="geometry">
            <mxPoint x="704.75" y="382" as="sourcePoint" />
            <mxPoint x="725.25" y="290" as="targetPoint" />
          </mxGeometry>
        </mxCell>
        <mxCell id="VFh9iW4sONz-iv-2uf0R-56" value="" style="endArrow=none;html=1;rounded=0;strokeColor=#FFFFFF;entryX=0.75;entryY=1;entryDx=0;entryDy=0;exitX=0.638;exitY=-0.003;exitDx=0;exitDy=0;exitPerimeter=0;" parent="1" source="VFh9iW4sONz-iv-2uf0R-32" edge="1">
          <mxGeometry width="50" height="50" relative="1" as="geometry">
            <mxPoint x="36.75" y="293" as="sourcePoint" />
            <mxPoint x="80" y="270" as="targetPoint" />
          </mxGeometry>
        </mxCell>
        <mxCell id="VFh9iW4sONz-iv-2uf0R-57" value="" style="endArrow=none;html=1;rounded=0;strokeColor=#FFFFFF;entryX=0.75;entryY=1;entryDx=0;entryDy=0;exitX=0.5;exitY=0;exitDx=0;exitDy=0;" parent="1" source="VFh9iW4sONz-iv-2uf0R-33" edge="1">
          <mxGeometry width="50" height="50" relative="1" as="geometry">
            <mxPoint x="80" y="310" as="sourcePoint" />
            <mxPoint x="120" y="270" as="targetPoint" />
          </mxGeometry>
        </mxCell>
        <mxCell id="VFh9iW4sONz-iv-2uf0R-58" value="" style="endArrow=none;html=1;rounded=0;strokeColor=#FFFFFF;entryX=0.75;entryY=1;entryDx=0;entryDy=0;" parent="1" source="VFh9iW4sONz-iv-2uf0R-34" edge="1">
          <mxGeometry width="50" height="50" relative="1" as="geometry">
            <mxPoint x="175" y="370" as="sourcePoint" />
            <mxPoint x="180" y="270" as="targetPoint" />
          </mxGeometry>
        </mxCell>
        <mxCell id="VFh9iW4sONz-iv-2uf0R-59" value="&lt;font color=&quot;#333333&quot; size=&quot;1&quot;&gt;&lt;b style=&quot;font-size: 15px;&quot;&gt;Seen By&lt;/b&gt;&lt;/font&gt;" style="rhombus;whiteSpace=wrap;html=1;fillColor=#cdeb8b;strokeColor=#36393d;" parent="1" vertex="1">
          <mxGeometry x="450" y="-450" width="130" height="90" as="geometry" />
        </mxCell>
        <mxCell id="VFh9iW4sONz-iv-2uf0R-60" value="&lt;font color=&quot;#333333&quot; size=&quot;1&quot;&gt;&lt;b style=&quot;font-size: 15px;&quot;&gt;Prescribe&lt;/b&gt;&lt;/font&gt;" style="rhombus;whiteSpace=wrap;html=1;fillColor=#cdeb8b;strokeColor=#36393d;" parent="1" vertex="1">
          <mxGeometry x="410" y="-220" width="110" height="80" as="geometry" />
        </mxCell>
        <mxCell id="VFh9iW4sONz-iv-2uf0R-61" value="" style="shape=link;html=1;rounded=0;exitX=1;exitY=0.25;exitDx=0;exitDy=0;strokeWidth=3;" parent="1" source="VFh9iW4sONz-iv-2uf0R-1" edge="1">
          <mxGeometry width="100" relative="1" as="geometry">
            <mxPoint x="360" y="-400" as="sourcePoint" />
            <mxPoint x="460" y="-400" as="targetPoint" />
          </mxGeometry>
        </mxCell>
        <mxCell id="VFh9iW4sONz-iv-2uf0R-62" value="" style="shape=link;html=1;rounded=0;strokeWidth=3;" parent="1" edge="1">
          <mxGeometry width="100" relative="1" as="geometry">
            <mxPoint x="570" y="-400" as="sourcePoint" />
            <mxPoint x="740" y="-315" as="targetPoint" />
          </mxGeometry>
        </mxCell>
        <mxCell id="VFh9iW4sONz-iv-2uf0R-63" value="&lt;font color=&quot;#333333&quot; size=&quot;1&quot;&gt;&lt;b style=&quot;font-size: 15px;&quot;&gt;Make&lt;/b&gt;&lt;/font&gt;" style="rhombus;whiteSpace=wrap;html=1;fillColor=#cdeb8b;strokeColor=#36393d;" parent="1" vertex="1">
          <mxGeometry x="95" y="-50" width="115" height="80" as="geometry" />
        </mxCell>
        <mxCell id="VFh9iW4sONz-iv-2uf0R-64" value="&lt;font color=&quot;#333333&quot; size=&quot;1&quot;&gt;&lt;b style=&quot;font-size: 15px;&quot;&gt;Contract&lt;/b&gt;&lt;/font&gt;" style="rhombus;whiteSpace=wrap;html=1;fillColor=#cdeb8b;strokeColor=#36393d;" parent="1" vertex="1">
          <mxGeometry x="400" y="210" width="110" height="80" as="geometry" />
        </mxCell>
        <mxCell id="VFh9iW4sONz-iv-2uf0R-65" value="&lt;font color=&quot;#333333&quot; size=&quot;1&quot;&gt;&lt;b style=&quot;font-size: 15px;&quot;&gt;Work&lt;/b&gt;&lt;/font&gt;" style="rhombus;whiteSpace=wrap;html=1;fillColor=#cdeb8b;strokeColor=#36393d;" parent="1" vertex="1">
          <mxGeometry x="760" y="70" width="110" height="80" as="geometry" />
        </mxCell>
        <mxCell id="VFh9iW4sONz-iv-2uf0R-66" value="" style="endArrow=none;html=1;rounded=0;strokeColor=#FFFFFF;entryX=0.5;entryY=1;entryDx=0;entryDy=0;exitX=0.375;exitY=-0.003;exitDx=0;exitDy=0;exitPerimeter=0;" parent="1" source="VFh9iW4sONz-iv-2uf0R-27" edge="1">
          <mxGeometry width="50" height="50" relative="1" as="geometry">
            <mxPoint x="488" y="70" as="sourcePoint" />
            <mxPoint x="450" y="20" as="targetPoint" />
          </mxGeometry>
        </mxCell>
        <mxCell id="VFh9iW4sONz-iv-2uf0R-69" value="" style="endArrow=none;html=1;rounded=0;strokeWidth=3;exitX=1;exitY=0.5;exitDx=0;exitDy=0;" parent="1" source="VFh9iW4sONz-iv-2uf0R-60" edge="1">
          <mxGeometry width="50" height="50" relative="1" as="geometry">
            <mxPoint x="690" y="-210" as="sourcePoint" />
            <mxPoint x="740" y="-260" as="targetPoint" />
          </mxGeometry>
        </mxCell>
        <mxCell id="VFh9iW4sONz-iv-2uf0R-70" value="" style="endArrow=none;html=1;rounded=0;strokeWidth=3;exitX=0.5;exitY=0;exitDx=0;exitDy=0;entryX=0.5;entryY=1;entryDx=0;entryDy=0;" parent="1" source="VFh9iW4sONz-iv-2uf0R-7" target="VFh9iW4sONz-iv-2uf0R-60" edge="1">
          <mxGeometry width="50" height="50" relative="1" as="geometry">
            <mxPoint x="250" y="-70" as="sourcePoint" />
            <mxPoint x="470" y="-150" as="targetPoint" />
          </mxGeometry>
        </mxCell>
        <mxCell id="VFh9iW4sONz-iv-2uf0R-71" value="" style="endArrow=none;html=1;rounded=0;strokeWidth=3;exitX=0;exitY=0.5;exitDx=0;exitDy=0;entryX=0.5;entryY=1;entryDx=0;entryDy=0;" parent="1" source="VFh9iW4sONz-iv-2uf0R-60" edge="1">
          <mxGeometry width="50" height="50" relative="1" as="geometry">
            <mxPoint x="265" y="-180" as="sourcePoint" />
            <mxPoint x="270" y="-280" as="targetPoint" />
          </mxGeometry>
        </mxCell>
        <mxCell id="VFh9iW4sONz-iv-2uf0R-75" value="" style="endArrow=none;html=1;rounded=0;strokeWidth=3;exitX=0.995;exitY=0.648;exitDx=0;exitDy=0;entryX=0;entryY=0.5;entryDx=0;entryDy=0;exitPerimeter=0;" parent="1" source="VFh9iW4sONz-iv-2uf0R-6" edge="1">
          <mxGeometry width="50" height="50" relative="1" as="geometry">
            <mxPoint x="210" y="249.5" as="sourcePoint" />
            <mxPoint x="405" y="249.5" as="targetPoint" />
          </mxGeometry>
        </mxCell>
        <mxCell id="VFh9iW4sONz-iv-2uf0R-76" value="" style="endArrow=none;html=1;rounded=0;strokeWidth=3;exitX=0.995;exitY=0.648;exitDx=0;exitDy=0;entryX=0.015;entryY=0.388;entryDx=0;entryDy=0;exitPerimeter=0;entryPerimeter=0;" parent="1" target="VFh9iW4sONz-iv-2uf0R-5" edge="1">
          <mxGeometry width="50" height="50" relative="1" as="geometry">
            <mxPoint x="510" y="249.5" as="sourcePoint" />
            <mxPoint x="676" y="250" as="targetPoint" />
          </mxGeometry>
        </mxCell>
        <mxCell id="VFh9iW4sONz-iv-2uf0R-77" value="" style="endArrow=none;html=1;rounded=0;strokeWidth=3;exitX=0.995;exitY=0.648;exitDx=0;exitDy=0;entryX=0.5;entryY=0;entryDx=0;entryDy=0;exitPerimeter=0;" parent="1" target="VFh9iW4sONz-iv-2uf0R-6" edge="1">
          <mxGeometry width="50" height="50" relative="1" as="geometry">
            <mxPoint x="148" y="30" as="sourcePoint" />
            <mxPoint x="350" y="33.5" as="targetPoint" />
          </mxGeometry>
        </mxCell>
        <mxCell id="VFh9iW4sONz-iv-2uf0R-78" value="" style="endArrow=none;html=1;rounded=0;strokeWidth=3;exitX=0.995;exitY=0.648;exitDx=0;exitDy=0;exitPerimeter=0;" parent="1" edge="1">
          <mxGeometry width="50" height="50" relative="1" as="geometry">
            <mxPoint x="814.5" as="sourcePoint" />
            <mxPoint x="814.5" y="80" as="targetPoint" />
          </mxGeometry>
        </mxCell>
        <mxCell id="VFh9iW4sONz-iv-2uf0R-80" value="" style="endArrow=none;html=1;rounded=0;strokeWidth=3;exitX=0.995;exitY=0.648;exitDx=0;exitDy=0;exitPerimeter=0;" parent="1" source="VFh9iW4sONz-iv-2uf0R-120" edge="1">
          <mxGeometry width="50" height="50" relative="1" as="geometry">
            <mxPoint x="814.5" y="150" as="sourcePoint" />
            <mxPoint x="814.5" y="230" as="targetPoint" />
          </mxGeometry>
        </mxCell>
        <mxCell id="VFh9iW4sONz-iv-2uf0R-81" value="" style="shape=link;html=1;rounded=0;exitX=1;exitY=0.5;exitDx=0;exitDy=0;strokeWidth=3;" parent="1" source="VFh9iW4sONz-iv-2uf0R-63" edge="1">
          <mxGeometry width="100" relative="1" as="geometry">
            <mxPoint x="210" y="75" as="sourcePoint" />
            <mxPoint x="400" y="-10" as="targetPoint" />
            <Array as="points">
              <mxPoint x="280" y="-10" />
            </Array>
          </mxGeometry>
        </mxCell>
        <mxCell id="VFh9iW4sONz-iv-2uf0R-83" value="&lt;font color=&quot;#333333&quot; size=&quot;1&quot;&gt;&lt;b style=&quot;font-size: 15px;&quot;&gt;Sell&lt;/b&gt;&lt;/font&gt;" style="rhombus;whiteSpace=wrap;html=1;fillColor=#cdeb8b;strokeColor=#36393d;" parent="1" vertex="1">
          <mxGeometry x="590" y="30" width="110" height="80" as="geometry" />
        </mxCell>
        <mxCell id="VFh9iW4sONz-iv-2uf0R-84" value="" style="endArrow=none;html=1;rounded=0;strokeWidth=3;exitX=0.995;exitY=0.648;exitDx=0;exitDy=0;exitPerimeter=0;entryX=0.5;entryY=0;entryDx=0;entryDy=0;" parent="1" target="VFh9iW4sONz-iv-2uf0R-83" edge="1">
          <mxGeometry width="50" height="50" relative="1" as="geometry">
            <mxPoint x="520" as="sourcePoint" />
            <mxPoint x="522" y="180" as="targetPoint" />
          </mxGeometry>
        </mxCell>
        <mxCell id="VFh9iW4sONz-iv-2uf0R-85" value="" style="endArrow=none;html=1;rounded=0;strokeWidth=3;exitX=0.5;exitY=1;exitDx=0;exitDy=0;entryX=0.25;entryY=0;entryDx=0;entryDy=0;" parent="1" source="VFh9iW4sONz-iv-2uf0R-83" target="VFh9iW4sONz-iv-2uf0R-5" edge="1">
          <mxGeometry width="50" height="50" relative="1" as="geometry">
            <mxPoint x="640" y="110" as="sourcePoint" />
            <mxPoint x="765" y="140" as="targetPoint" />
          </mxGeometry>
        </mxCell>
        <mxCell id="VFh9iW4sONz-iv-2uf0R-86" value="&lt;span style=&quot;color: rgb(0, 0, 0); font-size: 15px;&quot;&gt;Quantity&lt;/span&gt;" style="ellipse;whiteSpace=wrap;html=1;fillColor=#ffcc99;strokeColor=#36393d;" parent="1" vertex="1">
          <mxGeometry x="360" y="-140" width="90" height="60" as="geometry" />
        </mxCell>
        <mxCell id="VFh9iW4sONz-iv-2uf0R-87" value="&lt;font style=&quot;font-size: 15px;&quot; color=&quot;#000000&quot;&gt;Date&lt;/font&gt;" style="ellipse;whiteSpace=wrap;html=1;fillColor=#ffcc99;strokeColor=#36393d;" parent="1" vertex="1">
          <mxGeometry x="520" y="-160" width="90" height="60" as="geometry" />
        </mxCell>
        <mxCell id="VFh9iW4sONz-iv-2uf0R-89" value="&lt;font style=&quot;font-size: 15px;&quot; color=&quot;#000000&quot;&gt;Price&lt;/font&gt;" style="ellipse;whiteSpace=wrap;html=1;fillColor=#ffcc99;strokeColor=#36393d;" parent="1" vertex="1">
          <mxGeometry x="520" y="110" width="90" height="60" as="geometry" />
        </mxCell>
        <mxCell id="VFh9iW4sONz-iv-2uf0R-91" value="" style="endArrow=none;html=1;rounded=0;strokeColor=#FFFFFF;entryX=0.5;entryY=1;entryDx=0;entryDy=0;" parent="1" source="VFh9iW4sONz-iv-2uf0R-89" edge="1">
          <mxGeometry width="50" height="50" relative="1" as="geometry">
            <mxPoint x="648" y="130" as="sourcePoint" />
            <mxPoint x="610" y="80" as="targetPoint" />
          </mxGeometry>
        </mxCell>
        <mxCell id="VFh9iW4sONz-iv-2uf0R-95" value="" style="endArrow=none;html=1;rounded=0;strokeColor=#FFFFFF;entryX=0.5;entryY=1;entryDx=0;entryDy=0;exitX=0.027;exitY=0.344;exitDx=0;exitDy=0;exitPerimeter=0;" parent="1" source="VFh9iW4sONz-iv-2uf0R-87" edge="1">
          <mxGeometry width="50" height="50" relative="1" as="geometry">
            <mxPoint x="534" y="-110" as="sourcePoint" />
            <mxPoint x="496" y="-160" as="targetPoint" />
          </mxGeometry>
        </mxCell>
        <mxCell id="VFh9iW4sONz-iv-2uf0R-97" value="" style="endArrow=none;html=1;rounded=0;strokeColor=#FFFFFF;entryX=0.5;entryY=1;entryDx=0;entryDy=0;" parent="1" edge="1">
          <mxGeometry width="50" height="50" relative="1" as="geometry">
            <mxPoint x="420" y="-140" as="sourcePoint" />
            <mxPoint x="430" y="-160" as="targetPoint" />
          </mxGeometry>
        </mxCell>
        <mxCell id="VFh9iW4sONz-iv-2uf0R-100" value="&lt;font color=&quot;#000000&quot;&gt;&lt;span style=&quot;font-size: 15px;&quot;&gt;Start_Date&lt;/span&gt;&lt;/font&gt;" style="ellipse;whiteSpace=wrap;html=1;fillColor=#ffcc99;strokeColor=#36393d;" parent="1" vertex="1">
          <mxGeometry x="480" y="340" width="90" height="60" as="geometry" />
        </mxCell>
        <mxCell id="VFh9iW4sONz-iv-2uf0R-101" value="&lt;font color=&quot;#000000&quot;&gt;&lt;span style=&quot;font-size: 15px;&quot;&gt;End_Date&lt;/span&gt;&lt;/font&gt;" style="ellipse;whiteSpace=wrap;html=1;fillColor=#ffcc99;strokeColor=#36393d;" parent="1" vertex="1">
          <mxGeometry x="330" y="340" width="90" height="60" as="geometry" />
        </mxCell>
        <mxCell id="VFh9iW4sONz-iv-2uf0R-102" value="&lt;font color=&quot;#000000&quot;&gt;&lt;span style=&quot;font-size: 15px;&quot;&gt;Shift_Start&lt;/span&gt;&lt;/font&gt;" style="ellipse;whiteSpace=wrap;html=1;fillColor=#ffcc99;strokeColor=#36393d;" parent="1" vertex="1">
          <mxGeometry x="880" y="10" width="90" height="60" as="geometry" />
        </mxCell>
        <mxCell id="VFh9iW4sONz-iv-2uf0R-103" value="&lt;font color=&quot;#000000&quot;&gt;&lt;span style=&quot;font-size: 15px;&quot;&gt;Shift_End&lt;/span&gt;&lt;/font&gt;" style="ellipse;whiteSpace=wrap;html=1;fillColor=#ffcc99;strokeColor=#36393d;" parent="1" vertex="1">
          <mxGeometry x="880" y="150" width="90" height="60" as="geometry" />
        </mxCell>
        <mxCell id="VFh9iW4sONz-iv-2uf0R-104" value="" style="endArrow=none;html=1;rounded=0;strokeColor=#FFFFFF;entryX=0.5;entryY=1;entryDx=0;entryDy=0;exitX=0.75;exitY=0;exitDx=0;exitDy=0;" parent="1" edge="1">
          <mxGeometry width="50" height="50" relative="1" as="geometry">
            <mxPoint x="860" y="110" as="sourcePoint" />
            <mxPoint x="890" y="60" as="targetPoint" />
          </mxGeometry>
        </mxCell>
        <mxCell id="VFh9iW4sONz-iv-2uf0R-105" value="" style="endArrow=none;html=1;rounded=0;strokeColor=#FFFFFF;entryX=0.5;entryY=1;entryDx=0;entryDy=0;" parent="1" edge="1">
          <mxGeometry width="50" height="50" relative="1" as="geometry">
            <mxPoint x="888" y="170" as="sourcePoint" />
            <mxPoint x="850" y="120" as="targetPoint" />
          </mxGeometry>
        </mxCell>
        <mxCell id="VFh9iW4sONz-iv-2uf0R-106" value="" style="endArrow=none;html=1;rounded=0;strokeColor=#FFFFFF;entryX=0.75;entryY=1;entryDx=0;entryDy=0;exitX=0.357;exitY=0.011;exitDx=0;exitDy=0;exitPerimeter=0;" parent="1" source="VFh9iW4sONz-iv-2uf0R-100" edge="1">
          <mxGeometry width="50" height="50" relative="1" as="geometry">
            <mxPoint x="515" y="362" as="sourcePoint" />
            <mxPoint x="480" y="270" as="targetPoint" />
          </mxGeometry>
        </mxCell>
        <mxCell id="VFh9iW4sONz-iv-2uf0R-107" value="" style="endArrow=none;html=1;rounded=0;strokeColor=#FFFFFF;entryX=0.75;entryY=1;entryDx=0;entryDy=0;" parent="1" edge="1">
          <mxGeometry width="50" height="50" relative="1" as="geometry">
            <mxPoint x="390" y="350" as="sourcePoint" />
            <mxPoint x="418" y="259" as="targetPoint" />
          </mxGeometry>
        </mxCell>
        <mxCell id="VFh9iW4sONz-iv-2uf0R-108" value="&lt;font style=&quot;font-size: 18px;&quot;&gt;&lt;b&gt;1&lt;/b&gt;&lt;/font&gt;" style="text;html=1;align=center;verticalAlign=middle;whiteSpace=wrap;rounded=0;rotation=30;" parent="1" vertex="1">
          <mxGeometry x="365" y="-230" width="60" height="30" as="geometry" />
        </mxCell>
        <mxCell id="VFh9iW4sONz-iv-2uf0R-109" value="&lt;font style=&quot;font-size: 18px;&quot;&gt;&lt;b&gt;N&lt;/b&gt;&lt;/font&gt;" style="text;html=1;align=center;verticalAlign=middle;whiteSpace=wrap;rounded=0;rotation=-30;" parent="1" vertex="1">
          <mxGeometry x="390" y="-420" width="60" height="30" as="geometry" />
        </mxCell>
        <mxCell id="VFh9iW4sONz-iv-2uf0R-110" value="&lt;font style=&quot;font-size: 18px;&quot;&gt;&lt;b&gt;1&lt;/b&gt;&lt;/font&gt;" style="text;html=1;align=center;verticalAlign=middle;whiteSpace=wrap;rounded=0;rotation=-30;" parent="1" vertex="1">
          <mxGeometry x="510" y="-230" width="60" height="30" as="geometry" />
        </mxCell>
        <mxCell id="VFh9iW4sONz-iv-2uf0R-111" value="&lt;font style=&quot;font-size: 18px;&quot;&gt;&lt;b&gt;1&lt;/b&gt;&lt;/font&gt;" style="text;html=1;align=center;verticalAlign=middle;whiteSpace=wrap;rounded=0;rotation=30;" parent="1" vertex="1">
          <mxGeometry x="590" y="-420" width="60" height="30" as="geometry" />
        </mxCell>
        <mxCell id="VFh9iW4sONz-iv-2uf0R-114" value="&lt;font style=&quot;font-size: 18px;&quot;&gt;&lt;b&gt;N&lt;/b&gt;&lt;/font&gt;" style="text;html=1;align=center;verticalAlign=middle;whiteSpace=wrap;rounded=0;rotation=0;" parent="1" vertex="1">
          <mxGeometry x="200" y="-50" width="60" height="30" as="geometry" />
        </mxCell>
        <mxCell id="VFh9iW4sONz-iv-2uf0R-115" value="&lt;font style=&quot;font-size: 18px;&quot;&gt;&lt;b&gt;1&lt;/b&gt;&lt;/font&gt;" style="text;html=1;align=center;verticalAlign=middle;whiteSpace=wrap;rounded=0;rotation=0;" parent="1" vertex="1">
          <mxGeometry x="130" y="30" width="60" height="30" as="geometry" />
        </mxCell>
        <mxCell id="VFh9iW4sONz-iv-2uf0R-117" value="&lt;font style=&quot;font-size: 18px;&quot;&gt;&lt;b&gt;N&lt;/b&gt;&lt;/font&gt;" style="text;html=1;align=center;verticalAlign=middle;whiteSpace=wrap;rounded=0;rotation=0;" parent="1" vertex="1">
          <mxGeometry x="350" y="220" width="60" height="30" as="geometry" />
        </mxCell>
        <mxCell id="VFh9iW4sONz-iv-2uf0R-118" value="&lt;font style=&quot;font-size: 18px;&quot;&gt;&lt;b&gt;1&lt;/b&gt;&lt;/font&gt;" style="text;html=1;align=center;verticalAlign=middle;whiteSpace=wrap;rounded=0;rotation=0;" parent="1" vertex="1">
          <mxGeometry x="485" y="220" width="60" height="30" as="geometry" />
        </mxCell>
        <mxCell id="VFh9iW4sONz-iv-2uf0R-119" value="&lt;font style=&quot;font-size: 18px;&quot;&gt;&lt;b&gt;N&lt;/b&gt;&lt;/font&gt;" style="text;html=1;align=center;verticalAlign=middle;whiteSpace=wrap;rounded=0;rotation=0;" parent="1" vertex="1">
          <mxGeometry x="780" y="40" width="30" height="30" as="geometry" />
        </mxCell>
        <mxCell id="VFh9iW4sONz-iv-2uf0R-121" value="" style="endArrow=none;html=1;rounded=0;strokeWidth=3;exitX=0.995;exitY=0.648;exitDx=0;exitDy=0;exitPerimeter=0;" parent="1" target="VFh9iW4sONz-iv-2uf0R-120" edge="1">
          <mxGeometry width="50" height="50" relative="1" as="geometry">
            <mxPoint x="814.5" y="150" as="sourcePoint" />
            <mxPoint x="814.5" y="230" as="targetPoint" />
          </mxGeometry>
        </mxCell>
        <mxCell id="VFh9iW4sONz-iv-2uf0R-120" value="&lt;font style=&quot;font-size: 18px;&quot;&gt;&lt;b&gt;1&lt;/b&gt;&lt;/font&gt;" style="text;html=1;align=center;verticalAlign=middle;whiteSpace=wrap;rounded=0;rotation=0;" parent="1" vertex="1">
          <mxGeometry x="760" y="140" width="60" height="30" as="geometry" />
        </mxCell>
        <mxCell id="VFh9iW4sONz-iv-2uf0R-126" style="edgeStyle=orthogonalEdgeStyle;rounded=0;orthogonalLoop=1;jettySize=auto;html=1;" parent="1" target="VFh9iW4sONz-iv-2uf0R-65" edge="1">
          <mxGeometry relative="1" as="geometry">
            <mxPoint x="804.9999999999995" y="80" as="sourcePoint" />
          </mxGeometry>
        </mxCell>
        <mxCell id="VFh9iW4sONz-iv-2uf0R-125" value="&lt;font style=&quot;font-size: 18px;&quot;&gt;&lt;b&gt;N&lt;/b&gt;&lt;/font&gt;" style="text;html=1;align=center;verticalAlign=middle;whiteSpace=wrap;rounded=0;rotation=0;" parent="1" vertex="1">
          <mxGeometry x="600" y="-10" width="40" height="30" as="geometry" />
        </mxCell>
        <mxCell id="VFh9iW4sONz-iv-2uf0R-129" value="&lt;font style=&quot;font-size: 18px;&quot;&gt;&lt;b&gt;N&lt;/b&gt;&lt;/font&gt;" style="text;html=1;align=center;verticalAlign=middle;whiteSpace=wrap;rounded=0;rotation=0;" parent="1" vertex="1">
          <mxGeometry x="640" y="100" width="50" height="20" as="geometry" />
        </mxCell>
        <mxCell id="VFh9iW4sONz-iv-2uf0R-130" value="&lt;font size=&quot;1&quot; style=&quot;&quot;&gt;&lt;b style=&quot;font-size: 25px;&quot;&gt;1-ER Diagram&lt;/b&gt;&lt;/font&gt;" style="text;html=1;align=center;verticalAlign=middle;whiteSpace=wrap;rounded=0;rotation=0;" parent="1" vertex="1">
          <mxGeometry x="-40" y="-540" width="230" height="30" as="geometry" />
        </mxCell>
        <mxCell id="VFh9iW4sONz-iv-2uf0R-131" value="&lt;span style=&quot;font-size: 25px;&quot;&gt;&lt;b&gt;2-Mapping :&lt;/b&gt;&lt;/span&gt;&lt;span style=&quot;color: rgba(0, 0, 0, 0); font-family: monospace; font-size: 0px; text-align: start; text-wrap: nowrap;&quot;&gt;%3CmxGraphModel%3E%3Croot%3E%3CmxCell%20id%3D%220%22%2F%3E%3CmxCell%20id%3D%221%22%20parent%3D%220%22%2F%3E%3CmxCell%20id%3D%222%22%20value%3D%22%26lt%3Bfont%20size%3D%26quot%3B1%26quot%3B%20style%3D%26quot%3B%26quot%3B%26gt%3B%26lt%3Bb%20style%3D%26quot%3Bfont-size%3A%2025px%3B%26quot%3B%26gt%3B1-ER%20Diagram%26lt%3B%2Fb%26gt%3B%26lt%3B%2Ffont%26gt%3B%22%20style%3D%22text%3Bhtml%3D1%3Balign%3Dcenter%3BverticalAlign%3Dmiddle%3BwhiteSpace%3Dwrap%3Brounded%3D0%3Brotation%3D0%3B%22%20vertex%3D%221%22%20parent%3D%221%22%3E%3CmxGeometry%20x%3D%22-40%22%20y%3D%22-580%22%20width%3D%22230%22%20height%3D%2230%22%20as%3D%22geometry%22%2F%3E%3C%2FmxCell%3E%3C%2Froot%3E%3C%2FmxGraphModel%3E&lt;/span&gt;" style="text;html=1;align=center;verticalAlign=middle;whiteSpace=wrap;rounded=0;rotation=0;" parent="1" vertex="1">
          <mxGeometry x="-20" y="550" width="230" height="30" as="geometry" />
        </mxCell>
        <mxCell id="VFh9iW4sONz-iv-2uf0R-132" value="&lt;span style=&quot;font-size: 25px;&quot;&gt;&lt;b&gt;----------------------------------------------------------------------------------&lt;/b&gt;&lt;/span&gt;" style="text;html=1;align=center;verticalAlign=middle;whiteSpace=wrap;rounded=0;rotation=0;" parent="1" vertex="1">
          <mxGeometry x="20" y="460" width="845" height="30" as="geometry" />
        </mxCell>
        <mxCell id="VFh9iW4sONz-iv-2uf0R-133" value="&lt;span style=&quot;font-size: 25px;&quot;&gt;&lt;b&gt;----------------------------------------------------------------------------------&lt;/b&gt;&lt;/span&gt;" style="text;html=1;align=center;verticalAlign=middle;whiteSpace=wrap;rounded=0;rotation=0;" parent="1" vertex="1">
          <mxGeometry x="-5" y="-590" width="845" height="30" as="geometry" />
        </mxCell>
        <mxCell id="VFh9iW4sONz-iv-2uf0R-134" value="&lt;span style=&quot;font-size: 25px;&quot;&gt;&lt;b&gt;Pharmacy Project With SQL :&lt;/b&gt;&lt;/span&gt;" style="text;html=1;align=center;verticalAlign=middle;whiteSpace=wrap;rounded=0;rotation=0;" parent="1" vertex="1">
          <mxGeometry x="210" y="-640" width="360" height="30" as="geometry" />
        </mxCell>
        <mxCell id="VFh9iW4sONz-iv-2uf0R-137" value="" style="shape=table;startSize=0;container=1;collapsible=0;childLayout=tableLayout;fontSize=16;strokeWidth=3;" parent="1" vertex="1">
          <mxGeometry x="110" y="682" width="820" height="40" as="geometry" />
        </mxCell>
        <mxCell id="VFh9iW4sONz-iv-2uf0R-138" value="" style="shape=tableRow;horizontal=0;startSize=0;swimlaneHead=0;swimlaneBody=0;strokeColor=inherit;top=0;left=0;bottom=0;right=0;collapsible=0;dropTarget=0;fillColor=none;points=[[0,0.5],[1,0.5]];portConstraint=eastwest;fontSize=16;" parent="VFh9iW4sONz-iv-2uf0R-137" vertex="1">
          <mxGeometry width="820" height="40" as="geometry" />
        </mxCell>
        <mxCell id="VFh9iW4sONz-iv-2uf0R-139" value="&lt;font size=&quot;1&quot; style=&quot;&quot;&gt;&lt;b style=&quot;font-size: 18px;&quot;&gt;&lt;u style=&quot;&quot;&gt;P_ID&lt;/u&gt;&lt;/b&gt;&lt;/font&gt;" style="shape=partialRectangle;html=1;whiteSpace=wrap;connectable=0;strokeColor=inherit;overflow=hidden;fillColor=none;top=0;left=0;bottom=0;right=0;pointerEvents=1;fontSize=16;" parent="VFh9iW4sONz-iv-2uf0R-138" vertex="1">
          <mxGeometry width="90" height="40" as="geometry">
            <mxRectangle width="90" height="40" as="alternateBounds" />
          </mxGeometry>
        </mxCell>
        <mxCell id="VFh9iW4sONz-iv-2uf0R-140" value="" style="shape=partialRectangle;html=1;whiteSpace=wrap;connectable=0;strokeColor=inherit;overflow=hidden;fillColor=none;top=0;left=0;bottom=0;right=0;pointerEvents=1;fontSize=16;" parent="VFh9iW4sONz-iv-2uf0R-138" vertex="1">
          <mxGeometry x="90" width="392" height="40" as="geometry">
            <mxRectangle width="392" height="40" as="alternateBounds" />
          </mxGeometry>
        </mxCell>
        <mxCell id="VFh9iW4sONz-iv-2uf0R-141" value="" style="shape=partialRectangle;html=1;whiteSpace=wrap;connectable=0;strokeColor=inherit;overflow=hidden;fillColor=none;top=0;left=0;bottom=0;right=0;pointerEvents=1;fontSize=16;" parent="VFh9iW4sONz-iv-2uf0R-138" vertex="1">
          <mxGeometry x="482" width="338" height="40" as="geometry">
            <mxRectangle width="338" height="40" as="alternateBounds" />
          </mxGeometry>
        </mxCell>
        <mxCell id="VFh9iW4sONz-iv-2uf0R-150" value="&lt;span style=&quot;font-size: 25px;&quot;&gt;&lt;b&gt;&lt;font color=&quot;#67ab9f&quot;&gt;Patient&amp;nbsp; :&lt;/font&gt;&lt;/b&gt;&lt;/span&gt;" style="text;html=1;align=center;verticalAlign=middle;whiteSpace=wrap;rounded=0;rotation=0;" parent="1" vertex="1">
          <mxGeometry x="-40" y="685" width="110" height="30" as="geometry" />
        </mxCell>
        <mxCell id="VFh9iW4sONz-iv-2uf0R-151" value="&lt;font size=&quot;1&quot; style=&quot;&quot;&gt;&lt;b style=&quot;font-size: 18px;&quot;&gt;Name&lt;/b&gt;&lt;/font&gt;" style="shape=partialRectangle;html=1;whiteSpace=wrap;connectable=0;strokeColor=inherit;overflow=hidden;fillColor=none;top=0;left=0;bottom=0;right=0;pointerEvents=1;fontSize=16;" parent="1" vertex="1">
          <mxGeometry x="185" y="680" width="100" height="40" as="geometry">
            <mxRectangle width="100" height="36" as="alternateBounds" />
          </mxGeometry>
        </mxCell>
        <mxCell id="VFh9iW4sONz-iv-2uf0R-152" value="&lt;font color=&quot;#ffffff&quot; style=&quot;font-size: 18px;&quot;&gt;&lt;b&gt;Insurance_Info&lt;/b&gt;&lt;/font&gt;" style="shape=partialRectangle;html=1;whiteSpace=wrap;connectable=0;strokeColor=inherit;overflow=hidden;fillColor=none;top=0;left=0;bottom=0;right=0;pointerEvents=1;fontSize=16;" parent="1" vertex="1">
          <mxGeometry x="600" y="682" width="130" height="42" as="geometry">
            <mxRectangle width="100" height="36" as="alternateBounds" />
          </mxGeometry>
        </mxCell>
        <mxCell id="VFh9iW4sONz-iv-2uf0R-153" value="&lt;font size=&quot;1&quot; style=&quot;&quot;&gt;&lt;b style=&quot;font-size: 18px;&quot;&gt;Contact_NO&lt;/b&gt;&lt;/font&gt;" style="shape=partialRectangle;html=1;whiteSpace=wrap;connectable=0;strokeColor=inherit;overflow=hidden;fillColor=none;top=0;left=0;bottom=0;right=0;pointerEvents=1;fontSize=16;" parent="1" vertex="1">
          <mxGeometry x="460" y="682" width="110" height="40" as="geometry">
            <mxRectangle width="100" height="36" as="alternateBounds" />
          </mxGeometry>
        </mxCell>
        <mxCell id="VFh9iW4sONz-iv-2uf0R-154" value="&lt;font size=&quot;1&quot; style=&quot;&quot;&gt;&lt;b style=&quot;font-size: 18px;&quot;&gt;Address&lt;/b&gt;&lt;/font&gt;" style="shape=partialRectangle;html=1;whiteSpace=wrap;connectable=0;strokeColor=inherit;overflow=hidden;fillColor=none;top=0;left=0;bottom=0;right=0;pointerEvents=1;fontSize=16;" parent="1" vertex="1">
          <mxGeometry x="340" y="682" width="100" height="40" as="geometry">
            <mxRectangle width="100" height="36" as="alternateBounds" />
          </mxGeometry>
        </mxCell>
        <mxCell id="VFh9iW4sONz-iv-2uf0R-155" value="&lt;font size=&quot;1&quot; style=&quot;&quot;&gt;&lt;b style=&quot;font-size: 18px;&quot;&gt;Sex&lt;/b&gt;&lt;/font&gt;" style="shape=partialRectangle;html=1;whiteSpace=wrap;connectable=0;strokeColor=inherit;overflow=hidden;fillColor=none;top=0;left=0;bottom=0;right=0;pointerEvents=1;fontSize=16;" parent="1" vertex="1">
          <mxGeometry x="265" y="682" width="100" height="40" as="geometry">
            <mxRectangle width="100" height="36" as="alternateBounds" />
          </mxGeometry>
        </mxCell>
        <mxCell id="VFh9iW4sONz-iv-2uf0R-157" value="&lt;font size=&quot;1&quot; style=&quot;&quot;&gt;&lt;b style=&quot;font-size: 18px;&quot;&gt;D_ID&lt;/b&gt;&lt;/font&gt;" style="shape=partialRectangle;html=1;whiteSpace=wrap;connectable=0;strokeColor=inherit;overflow=hidden;fillColor=none;top=0;left=0;bottom=0;right=0;pointerEvents=1;fontSize=16;" parent="1" vertex="1">
          <mxGeometry x="735" y="680" width="85" height="40" as="geometry">
            <mxRectangle width="100" height="36" as="alternateBounds" />
          </mxGeometry>
        </mxCell>
        <mxCell id="VFh9iW4sONz-iv-2uf0R-159" value="" style="endArrow=none;dashed=1;html=1;dashPattern=1 3;strokeWidth=5;rounded=0;endSize=10;" parent="1" edge="1">
          <mxGeometry width="50" height="50" relative="1" as="geometry">
            <mxPoint x="760" y="712" as="sourcePoint" />
            <mxPoint x="810" y="712" as="targetPoint" />
          </mxGeometry>
        </mxCell>
        <mxCell id="VFh9iW4sONz-iv-2uf0R-160" value="" style="endArrow=none;html=1;rounded=0;endSize=50;strokeWidth=3;" parent="1" edge="1">
          <mxGeometry width="50" height="50" relative="1" as="geometry">
            <mxPoint x="280" y="722" as="sourcePoint" />
            <mxPoint x="280" y="682" as="targetPoint" />
          </mxGeometry>
        </mxCell>
        <mxCell id="VFh9iW4sONz-iv-2uf0R-162" value="" style="endArrow=none;html=1;rounded=0;strokeWidth=3;" parent="1" edge="1">
          <mxGeometry width="50" height="50" relative="1" as="geometry">
            <mxPoint x="340" y="722" as="sourcePoint" />
            <mxPoint x="340" y="682" as="targetPoint" />
          </mxGeometry>
        </mxCell>
        <mxCell id="VFh9iW4sONz-iv-2uf0R-163" value="" style="endArrow=none;html=1;rounded=0;strokeWidth=3;" parent="1" edge="1">
          <mxGeometry width="50" height="50" relative="1" as="geometry">
            <mxPoint x="430" y="722" as="sourcePoint" />
            <mxPoint x="430" y="682" as="targetPoint" />
          </mxGeometry>
        </mxCell>
        <mxCell id="VFh9iW4sONz-iv-2uf0R-166" value="" style="endArrow=none;html=1;rounded=0;strokeWidth=3;" parent="1" edge="1">
          <mxGeometry width="50" height="50" relative="1" as="geometry">
            <mxPoint x="750" y="722" as="sourcePoint" />
            <mxPoint x="750" y="682" as="targetPoint" />
          </mxGeometry>
        </mxCell>
        <mxCell id="VFh9iW4sONz-iv-2uf0R-167" value="" style="shape=table;startSize=0;container=1;collapsible=0;childLayout=tableLayout;fontSize=16;strokeWidth=3;" parent="1" vertex="1">
          <mxGeometry x="94" y="852" width="740" height="40" as="geometry" />
        </mxCell>
        <mxCell id="VFh9iW4sONz-iv-2uf0R-168" value="" style="shape=tableRow;horizontal=0;startSize=0;swimlaneHead=0;swimlaneBody=0;strokeColor=inherit;top=0;left=0;bottom=0;right=0;collapsible=0;dropTarget=0;fillColor=none;points=[[0,0.5],[1,0.5]];portConstraint=eastwest;fontSize=16;" parent="VFh9iW4sONz-iv-2uf0R-167" vertex="1">
          <mxGeometry width="740" height="40" as="geometry" />
        </mxCell>
        <mxCell id="VFh9iW4sONz-iv-2uf0R-169" value="&lt;font size=&quot;1&quot; style=&quot;&quot;&gt;&lt;b style=&quot;font-size: 18px;&quot;&gt;&lt;u style=&quot;&quot;&gt;D_ID&lt;/u&gt;&lt;/b&gt;&lt;/font&gt;" style="shape=partialRectangle;html=1;whiteSpace=wrap;connectable=0;strokeColor=inherit;overflow=hidden;fillColor=none;top=0;left=0;bottom=0;right=0;pointerEvents=1;fontSize=16;" parent="VFh9iW4sONz-iv-2uf0R-168" vertex="1">
          <mxGeometry width="86" height="40" as="geometry">
            <mxRectangle width="86" height="40" as="alternateBounds" />
          </mxGeometry>
        </mxCell>
        <mxCell id="VFh9iW4sONz-iv-2uf0R-170" value="" style="shape=partialRectangle;html=1;whiteSpace=wrap;connectable=0;strokeColor=inherit;overflow=hidden;fillColor=none;top=0;left=0;bottom=0;right=0;pointerEvents=1;fontSize=16;" parent="VFh9iW4sONz-iv-2uf0R-168" vertex="1">
          <mxGeometry x="86" width="100" height="40" as="geometry">
            <mxRectangle width="100" height="40" as="alternateBounds" />
          </mxGeometry>
        </mxCell>
        <mxCell id="VFh9iW4sONz-iv-2uf0R-171" value="" style="shape=partialRectangle;html=1;whiteSpace=wrap;connectable=0;strokeColor=inherit;overflow=hidden;fillColor=none;top=0;left=0;bottom=0;right=0;pointerEvents=1;fontSize=16;" parent="VFh9iW4sONz-iv-2uf0R-168" vertex="1">
          <mxGeometry x="186" width="554" height="40" as="geometry">
            <mxRectangle width="554" height="40" as="alternateBounds" />
          </mxGeometry>
        </mxCell>
        <mxCell id="VFh9iW4sONz-iv-2uf0R-172" value="&lt;font size=&quot;1&quot; style=&quot;&quot;&gt;&lt;b style=&quot;font-size: 18px;&quot;&gt;D_Name&lt;/b&gt;&lt;/font&gt;" style="shape=partialRectangle;html=1;whiteSpace=wrap;connectable=0;strokeColor=inherit;overflow=hidden;fillColor=none;top=0;left=0;bottom=0;right=0;pointerEvents=1;fontSize=16;" parent="1" vertex="1">
          <mxGeometry x="180" y="852" width="100" height="40" as="geometry">
            <mxRectangle width="100" height="36" as="alternateBounds" />
          </mxGeometry>
        </mxCell>
        <mxCell id="VFh9iW4sONz-iv-2uf0R-173" value="&lt;font color=&quot;#ffffff&quot; style=&quot;font-size: 18px;&quot;&gt;&lt;b&gt;Speciality&lt;/b&gt;&lt;/font&gt;" style="shape=partialRectangle;html=1;whiteSpace=wrap;connectable=0;strokeColor=inherit;overflow=hidden;fillColor=none;top=0;left=0;bottom=0;right=0;pointerEvents=1;fontSize=16;" parent="1" vertex="1">
          <mxGeometry x="280" y="852" width="130" height="42" as="geometry">
            <mxRectangle width="100" height="36" as="alternateBounds" />
          </mxGeometry>
        </mxCell>
        <mxCell id="VFh9iW4sONz-iv-2uf0R-178" value="" style="endArrow=none;dashed=1;html=1;dashPattern=1 3;strokeWidth=2;rounded=0;endSize=10;" parent="1" edge="1">
          <mxGeometry width="50" height="50" relative="1" as="geometry">
            <mxPoint x="765" y="882" as="sourcePoint" />
            <mxPoint x="815" y="882" as="targetPoint" />
          </mxGeometry>
        </mxCell>
        <mxCell id="VFh9iW4sONz-iv-2uf0R-183" value="&lt;span style=&quot;font-size: 25px;&quot;&gt;&lt;b&gt;&lt;font color=&quot;#67ab9f&quot;&gt;Doctor :&lt;/font&gt;&lt;/b&gt;&lt;/span&gt;" style="text;html=1;align=center;verticalAlign=middle;whiteSpace=wrap;rounded=0;rotation=0;" parent="1" vertex="1">
          <mxGeometry x="-50" y="857" width="120" height="30" as="geometry" />
        </mxCell>
        <mxCell id="VFh9iW4sONz-iv-2uf0R-191" value="" style="endArrow=none;dashed=1;html=1;dashPattern=1 3;strokeWidth=2;rounded=0;endSize=10;" parent="1" edge="1">
          <mxGeometry width="50" height="50" relative="1" as="geometry">
            <mxPoint x="761" y="1050" as="sourcePoint" />
            <mxPoint x="811" y="1050" as="targetPoint" />
          </mxGeometry>
        </mxCell>
        <mxCell id="VFh9iW4sONz-iv-2uf0R-192" value="&lt;span style=&quot;font-size: 25px;&quot;&gt;&lt;b&gt;&lt;font color=&quot;#67ab9f&quot;&gt;Drug :&lt;/font&gt;&lt;/b&gt;&lt;/span&gt;" style="text;html=1;align=center;verticalAlign=middle;whiteSpace=wrap;rounded=0;rotation=0;" parent="1" vertex="1">
          <mxGeometry x="-40" y="1025" width="76" height="30" as="geometry" />
        </mxCell>
        <mxCell id="VFh9iW4sONz-iv-2uf0R-228" value="" style="shape=table;startSize=0;container=1;collapsible=0;childLayout=tableLayout;fontSize=16;strokeWidth=3;" parent="1" vertex="1">
          <mxGeometry x="90" y="1210" width="740" height="40" as="geometry" />
        </mxCell>
        <mxCell id="VFh9iW4sONz-iv-2uf0R-229" value="" style="shape=tableRow;horizontal=0;startSize=0;swimlaneHead=0;swimlaneBody=0;strokeColor=inherit;top=0;left=0;bottom=0;right=0;collapsible=0;dropTarget=0;fillColor=none;points=[[0,0.5],[1,0.5]];portConstraint=eastwest;fontSize=16;" parent="VFh9iW4sONz-iv-2uf0R-228" vertex="1">
          <mxGeometry width="740" height="40" as="geometry" />
        </mxCell>
        <mxCell id="VFh9iW4sONz-iv-2uf0R-230" value="&lt;font size=&quot;1&quot; style=&quot;&quot;&gt;&lt;b style=&quot;font-size: 18px;&quot;&gt;&lt;u style=&quot;&quot;&gt;Company_ID&lt;/u&gt;&lt;/b&gt;&lt;/font&gt;" style="shape=partialRectangle;html=1;whiteSpace=wrap;connectable=0;strokeColor=inherit;overflow=hidden;fillColor=none;top=0;left=0;bottom=0;right=0;pointerEvents=1;fontSize=16;" parent="VFh9iW4sONz-iv-2uf0R-229" vertex="1">
          <mxGeometry width="130" height="40" as="geometry">
            <mxRectangle width="130" height="40" as="alternateBounds" />
          </mxGeometry>
        </mxCell>
        <mxCell id="VFh9iW4sONz-iv-2uf0R-231" value="&lt;b&gt;&lt;font style=&quot;font-size: 18px;&quot;&gt;Name&lt;/font&gt;&lt;/b&gt;" style="shape=partialRectangle;html=1;whiteSpace=wrap;connectable=0;strokeColor=inherit;overflow=hidden;fillColor=none;top=0;left=0;bottom=0;right=0;pointerEvents=1;fontSize=16;" parent="VFh9iW4sONz-iv-2uf0R-229" vertex="1">
          <mxGeometry x="130" width="90" height="40" as="geometry">
            <mxRectangle width="90" height="40" as="alternateBounds" />
          </mxGeometry>
        </mxCell>
        <mxCell id="VFh9iW4sONz-iv-2uf0R-232" value="&lt;b&gt;&lt;font style=&quot;font-size: 18px;&quot;&gt;&amp;nbsp; &amp;nbsp; Address&lt;/font&gt;&lt;/b&gt;" style="shape=partialRectangle;html=1;whiteSpace=wrap;connectable=0;strokeColor=inherit;overflow=hidden;fillColor=none;top=0;left=0;bottom=0;right=0;pointerEvents=1;fontSize=16;align=left;" parent="VFh9iW4sONz-iv-2uf0R-229" vertex="1">
          <mxGeometry x="220" width="520" height="40" as="geometry">
            <mxRectangle width="520" height="40" as="alternateBounds" />
          </mxGeometry>
        </mxCell>
        <mxCell id="VFh9iW4sONz-iv-2uf0R-233" value="&lt;span style=&quot;font-size: 25px;&quot;&gt;&lt;b&gt;&lt;font color=&quot;#67ab9f&quot;&gt;Drug_&lt;/font&gt;&lt;/b&gt;&lt;/span&gt;&lt;div&gt;&lt;span style=&quot;font-size: 25px;&quot;&gt;&lt;b&gt;&lt;font color=&quot;#67ab9f&quot;&gt;Manufacturer&amp;nbsp; :&lt;/font&gt;&lt;/b&gt;&lt;/span&gt;&lt;/div&gt;" style="text;html=1;align=center;verticalAlign=middle;whiteSpace=wrap;rounded=0;rotation=0;" parent="1" vertex="1">
          <mxGeometry x="-140" y="1190" width="270" height="70" as="geometry" />
        </mxCell>
        <mxCell id="VFh9iW4sONz-iv-2uf0R-234" value="" style="shape=table;startSize=0;container=1;collapsible=0;childLayout=tableLayout;fontSize=16;strokeWidth=3;" parent="1" vertex="1">
          <mxGeometry x="90" y="1370" width="740" height="40" as="geometry" />
        </mxCell>
        <mxCell id="VFh9iW4sONz-iv-2uf0R-235" value="" style="shape=tableRow;horizontal=0;startSize=0;swimlaneHead=0;swimlaneBody=0;strokeColor=inherit;top=0;left=0;bottom=0;right=0;collapsible=0;dropTarget=0;fillColor=none;points=[[0,0.5],[1,0.5]];portConstraint=eastwest;fontSize=16;" parent="VFh9iW4sONz-iv-2uf0R-234" vertex="1">
          <mxGeometry width="740" height="40" as="geometry" />
        </mxCell>
        <mxCell id="VFh9iW4sONz-iv-2uf0R-236" value="&lt;font size=&quot;1&quot; style=&quot;&quot;&gt;&lt;b style=&quot;font-size: 18px;&quot;&gt;&lt;u style=&quot;&quot;&gt;Phar_ID&lt;/u&gt;&lt;/b&gt;&lt;/font&gt;" style="shape=partialRectangle;html=1;whiteSpace=wrap;connectable=0;strokeColor=inherit;overflow=hidden;fillColor=none;top=0;left=0;bottom=0;right=0;pointerEvents=1;fontSize=16;" parent="VFh9iW4sONz-iv-2uf0R-235" vertex="1">
          <mxGeometry width="90" height="40" as="geometry">
            <mxRectangle width="90" height="40" as="alternateBounds" />
          </mxGeometry>
        </mxCell>
        <mxCell id="VFh9iW4sONz-iv-2uf0R-237" value="" style="shape=partialRectangle;html=1;whiteSpace=wrap;connectable=0;strokeColor=inherit;overflow=hidden;fillColor=none;top=0;left=0;bottom=0;right=0;pointerEvents=1;fontSize=16;" parent="VFh9iW4sONz-iv-2uf0R-235" vertex="1">
          <mxGeometry x="90" width="96" height="40" as="geometry">
            <mxRectangle width="96" height="40" as="alternateBounds" />
          </mxGeometry>
        </mxCell>
        <mxCell id="VFh9iW4sONz-iv-2uf0R-238" value="" style="shape=partialRectangle;html=1;whiteSpace=wrap;connectable=0;strokeColor=inherit;overflow=hidden;fillColor=none;top=0;left=0;bottom=0;right=0;pointerEvents=1;fontSize=16;" parent="VFh9iW4sONz-iv-2uf0R-235" vertex="1">
          <mxGeometry x="186" width="554" height="40" as="geometry">
            <mxRectangle width="554" height="40" as="alternateBounds" />
          </mxGeometry>
        </mxCell>
        <mxCell id="VFh9iW4sONz-iv-2uf0R-239" value="&lt;font size=&quot;1&quot; style=&quot;&quot;&gt;&lt;b style=&quot;font-size: 18px;&quot;&gt;Name&lt;/b&gt;&lt;/font&gt;" style="shape=partialRectangle;html=1;whiteSpace=wrap;connectable=0;strokeColor=inherit;overflow=hidden;fillColor=none;top=0;left=0;bottom=0;right=0;pointerEvents=1;fontSize=16;" parent="1" vertex="1">
          <mxGeometry x="176" y="1370" width="100" height="40" as="geometry">
            <mxRectangle width="100" height="36" as="alternateBounds" />
          </mxGeometry>
        </mxCell>
        <mxCell id="VFh9iW4sONz-iv-2uf0R-240" value="&lt;b style=&quot;text-align: left;&quot;&gt;&lt;font style=&quot;font-size: 18px;&quot;&gt;&amp;nbsp; &amp;nbsp; Address&lt;/font&gt;&lt;/b&gt;" style="shape=partialRectangle;html=1;whiteSpace=wrap;connectable=0;strokeColor=inherit;overflow=hidden;fillColor=none;top=0;left=0;bottom=0;right=0;pointerEvents=1;fontSize=16;" parent="1" vertex="1">
          <mxGeometry x="276" y="1370" width="130" height="42" as="geometry">
            <mxRectangle width="100" height="36" as="alternateBounds" />
          </mxGeometry>
        </mxCell>
        <mxCell id="VFh9iW4sONz-iv-2uf0R-241" value="" style="endArrow=none;dashed=1;html=1;dashPattern=1 3;strokeWidth=2;rounded=0;endSize=10;" parent="1" edge="1">
          <mxGeometry width="50" height="50" relative="1" as="geometry">
            <mxPoint x="761" y="1400" as="sourcePoint" />
            <mxPoint x="811" y="1400" as="targetPoint" />
          </mxGeometry>
        </mxCell>
        <mxCell id="VFh9iW4sONz-iv-2uf0R-242" value="&lt;font color=&quot;#67ab9f&quot;&gt;&lt;span style=&quot;font-size: 25px;&quot;&gt;&lt;b&gt;Pharmacy :&lt;/b&gt;&lt;/span&gt;&lt;/font&gt;" style="text;html=1;align=center;verticalAlign=middle;whiteSpace=wrap;rounded=0;rotation=0;" parent="1" vertex="1">
          <mxGeometry x="-90" y="1360" width="160" height="45" as="geometry" />
        </mxCell>
        <mxCell id="VFh9iW4sONz-iv-2uf0R-243" value="&lt;font size=&quot;1&quot; style=&quot;&quot;&gt;&lt;b style=&quot;font-size: 18px;&quot;&gt;Fax&lt;/b&gt;&lt;/font&gt;" style="shape=partialRectangle;html=1;whiteSpace=wrap;connectable=0;strokeColor=inherit;overflow=hidden;fillColor=none;top=0;left=0;bottom=0;right=0;pointerEvents=1;fontSize=16;" parent="1" vertex="1">
          <mxGeometry x="400" y="1371" width="100" height="40" as="geometry">
            <mxRectangle width="100" height="36" as="alternateBounds" />
          </mxGeometry>
        </mxCell>
        <mxCell id="VFh9iW4sONz-iv-2uf0R-245" value="" style="endArrow=none;html=1;rounded=0;strokeWidth=3;" parent="1" edge="1">
          <mxGeometry width="50" height="50" relative="1" as="geometry">
            <mxPoint x="410" y="1370" as="sourcePoint" />
            <mxPoint x="410" y="1410" as="targetPoint" />
          </mxGeometry>
        </mxCell>
        <mxCell id="VFh9iW4sONz-iv-2uf0R-246" value="" style="shape=table;startSize=0;container=1;collapsible=0;childLayout=tableLayout;fontSize=16;strokeWidth=3;" parent="1" vertex="1">
          <mxGeometry x="90" y="1540" width="740" height="40" as="geometry" />
        </mxCell>
        <mxCell id="VFh9iW4sONz-iv-2uf0R-247" value="" style="shape=tableRow;horizontal=0;startSize=0;swimlaneHead=0;swimlaneBody=0;strokeColor=inherit;top=0;left=0;bottom=0;right=0;collapsible=0;dropTarget=0;fillColor=none;points=[[0,0.5],[1,0.5]];portConstraint=eastwest;fontSize=16;" parent="VFh9iW4sONz-iv-2uf0R-246" vertex="1">
          <mxGeometry width="740" height="40" as="geometry" />
        </mxCell>
        <mxCell id="VFh9iW4sONz-iv-2uf0R-248" value="&lt;font size=&quot;1&quot; style=&quot;&quot;&gt;&lt;b style=&quot;font-size: 18px;&quot;&gt;&lt;u style=&quot;&quot;&gt;Emp_ID&lt;/u&gt;&lt;/b&gt;&lt;/font&gt;" style="shape=partialRectangle;html=1;whiteSpace=wrap;connectable=0;strokeColor=inherit;overflow=hidden;fillColor=none;top=0;left=0;bottom=0;right=0;pointerEvents=1;fontSize=16;" parent="VFh9iW4sONz-iv-2uf0R-247" vertex="1">
          <mxGeometry width="110" height="40" as="geometry">
            <mxRectangle width="110" height="40" as="alternateBounds" />
          </mxGeometry>
        </mxCell>
        <mxCell id="VFh9iW4sONz-iv-2uf0R-249" value="" style="shape=partialRectangle;html=1;whiteSpace=wrap;connectable=0;strokeColor=inherit;overflow=hidden;fillColor=none;top=0;left=0;bottom=0;right=0;pointerEvents=1;fontSize=16;" parent="VFh9iW4sONz-iv-2uf0R-247" vertex="1">
          <mxGeometry x="110" width="160" height="40" as="geometry">
            <mxRectangle width="160" height="40" as="alternateBounds" />
          </mxGeometry>
        </mxCell>
        <mxCell id="VFh9iW4sONz-iv-2uf0R-250" value="" style="shape=partialRectangle;html=1;whiteSpace=wrap;connectable=0;strokeColor=inherit;overflow=hidden;fillColor=none;top=0;left=0;bottom=0;right=0;pointerEvents=1;fontSize=16;" parent="VFh9iW4sONz-iv-2uf0R-247" vertex="1">
          <mxGeometry x="270" width="470" height="40" as="geometry">
            <mxRectangle width="470" height="40" as="alternateBounds" />
          </mxGeometry>
        </mxCell>
        <mxCell id="VFh9iW4sONz-iv-2uf0R-335" value="" style="endArrow=none;html=1;rounded=0;strokeWidth=3;entryX=0.668;entryY=0.047;entryDx=0;entryDy=0;entryPerimeter=0;exitX=0.667;exitY=1.001;exitDx=0;exitDy=0;exitPerimeter=0;" parent="VFh9iW4sONz-iv-2uf0R-246" source="VFh9iW4sONz-iv-2uf0R-247" target="VFh9iW4sONz-iv-2uf0R-247" edge="1">
          <mxGeometry width="50" height="50" relative="1" as="geometry">
            <mxPoint x="380" y="50" as="sourcePoint" />
            <mxPoint x="380" y="10" as="targetPoint" />
          </mxGeometry>
        </mxCell>
        <mxCell id="VFh9iW4sONz-iv-2uf0R-251" value="&lt;font size=&quot;1&quot; style=&quot;&quot;&gt;&lt;b style=&quot;font-size: 18px;&quot;&gt;Emp_Name&lt;/b&gt;&lt;/font&gt;" style="shape=partialRectangle;html=1;whiteSpace=wrap;connectable=0;strokeColor=inherit;overflow=hidden;fillColor=none;top=0;left=0;bottom=0;right=0;pointerEvents=1;fontSize=16;" parent="1" vertex="1">
          <mxGeometry x="230" y="1542" width="100" height="40" as="geometry">
            <mxRectangle width="100" height="36" as="alternateBounds" />
          </mxGeometry>
        </mxCell>
        <mxCell id="VFh9iW4sONz-iv-2uf0R-252" value="" style="shape=partialRectangle;html=1;whiteSpace=wrap;connectable=0;strokeColor=inherit;overflow=hidden;fillColor=none;top=0;left=0;bottom=0;right=0;pointerEvents=1;fontSize=16;" parent="1" vertex="1">
          <mxGeometry x="340" y="1540" width="66" height="42" as="geometry">
            <mxRectangle width="100" height="36" as="alternateBounds" />
          </mxGeometry>
        </mxCell>
        <mxCell id="VFh9iW4sONz-iv-2uf0R-253" value="" style="endArrow=none;dashed=1;html=1;dashPattern=1 3;strokeWidth=2;rounded=0;endSize=10;" parent="1" edge="1">
          <mxGeometry width="50" height="50" relative="1" as="geometry">
            <mxPoint x="761" y="1570" as="sourcePoint" />
            <mxPoint x="811" y="1570" as="targetPoint" />
          </mxGeometry>
        </mxCell>
        <mxCell id="VFh9iW4sONz-iv-2uf0R-254" value="&lt;font color=&quot;#67ab9f&quot;&gt;&lt;span style=&quot;font-size: 25px;&quot;&gt;&lt;b&gt;Employee :&lt;/b&gt;&lt;/span&gt;&lt;/font&gt;" style="text;html=1;align=center;verticalAlign=middle;whiteSpace=wrap;rounded=0;rotation=0;" parent="1" vertex="1">
          <mxGeometry x="-90" y="1530" width="160" height="45" as="geometry" />
        </mxCell>
        <mxCell id="VFh9iW4sONz-iv-2uf0R-255" value="&lt;b&gt;&lt;font style=&quot;font-size: 18px;&quot;&gt;Phar_ID&lt;/font&gt;&lt;/b&gt;" style="shape=partialRectangle;html=1;whiteSpace=wrap;connectable=0;strokeColor=inherit;overflow=hidden;fillColor=none;top=0;left=0;bottom=0;right=0;pointerEvents=1;fontSize=16;" parent="1" vertex="1">
          <mxGeometry x="360" y="1542" width="100" height="40" as="geometry">
            <mxRectangle width="100" height="36" as="alternateBounds" />
          </mxGeometry>
        </mxCell>
        <mxCell id="VFh9iW4sONz-iv-2uf0R-257" value="" style="shape=table;startSize=0;container=1;collapsible=0;childLayout=tableLayout;fontSize=16;strokeWidth=3;" parent="1" vertex="1">
          <mxGeometry x="97" y="1738" width="740" height="40" as="geometry" />
        </mxCell>
        <mxCell id="VFh9iW4sONz-iv-2uf0R-258" value="" style="shape=tableRow;horizontal=0;startSize=0;swimlaneHead=0;swimlaneBody=0;strokeColor=inherit;top=0;left=0;bottom=0;right=0;collapsible=0;dropTarget=0;fillColor=none;points=[[0,0.5],[1,0.5]];portConstraint=eastwest;fontSize=16;" parent="VFh9iW4sONz-iv-2uf0R-257" vertex="1">
          <mxGeometry width="740" height="40" as="geometry" />
        </mxCell>
        <mxCell id="VFh9iW4sONz-iv-2uf0R-259" value="&lt;font size=&quot;1&quot; style=&quot;&quot;&gt;&lt;b style=&quot;font-size: 18px;&quot;&gt;P_ID&lt;/b&gt;&lt;/font&gt;" style="shape=partialRectangle;html=1;whiteSpace=wrap;connectable=0;strokeColor=inherit;overflow=hidden;fillColor=none;top=0;left=0;bottom=0;right=0;pointerEvents=1;fontSize=16;" parent="VFh9iW4sONz-iv-2uf0R-258" vertex="1">
          <mxGeometry width="110" height="40" as="geometry">
            <mxRectangle width="110" height="40" as="alternateBounds" />
          </mxGeometry>
        </mxCell>
        <mxCell id="VFh9iW4sONz-iv-2uf0R-260" value="" style="shape=partialRectangle;html=1;whiteSpace=wrap;connectable=0;strokeColor=inherit;overflow=hidden;fillColor=none;top=0;left=0;bottom=0;right=0;pointerEvents=1;fontSize=16;" parent="VFh9iW4sONz-iv-2uf0R-258" vertex="1">
          <mxGeometry x="110" width="106" height="40" as="geometry">
            <mxRectangle width="106" height="40" as="alternateBounds" />
          </mxGeometry>
        </mxCell>
        <mxCell id="VFh9iW4sONz-iv-2uf0R-261" value="" style="shape=partialRectangle;html=1;whiteSpace=wrap;connectable=0;strokeColor=inherit;overflow=hidden;fillColor=none;top=0;left=0;bottom=0;right=0;pointerEvents=1;fontSize=16;" parent="VFh9iW4sONz-iv-2uf0R-258" vertex="1">
          <mxGeometry x="216" width="524" height="40" as="geometry">
            <mxRectangle width="524" height="40" as="alternateBounds" />
          </mxGeometry>
        </mxCell>
        <mxCell id="VFh9iW4sONz-iv-2uf0R-262" value="&lt;font size=&quot;1&quot; style=&quot;&quot;&gt;&lt;b style=&quot;font-size: 18px;&quot;&gt;&lt;u&gt;D_ID&lt;/u&gt;&lt;/b&gt;&lt;/font&gt;" style="shape=partialRectangle;html=1;whiteSpace=wrap;connectable=0;strokeColor=inherit;overflow=hidden;fillColor=none;top=0;left=0;bottom=0;right=0;pointerEvents=1;fontSize=16;" parent="1" vertex="1">
          <mxGeometry x="217" y="1739" width="100" height="40" as="geometry">
            <mxRectangle width="100" height="36" as="alternateBounds" />
          </mxGeometry>
        </mxCell>
        <mxCell id="VFh9iW4sONz-iv-2uf0R-263" value="" style="shape=partialRectangle;html=1;whiteSpace=wrap;connectable=0;strokeColor=inherit;overflow=hidden;fillColor=none;top=0;left=0;bottom=0;right=0;pointerEvents=1;fontSize=16;" parent="1" vertex="1">
          <mxGeometry x="407" y="1738" width="66" height="42" as="geometry">
            <mxRectangle width="100" height="36" as="alternateBounds" />
          </mxGeometry>
        </mxCell>
        <mxCell id="VFh9iW4sONz-iv-2uf0R-264" value="" style="endArrow=none;dashed=1;html=1;dashPattern=1 3;strokeWidth=2;rounded=0;endSize=10;" parent="1" edge="1">
          <mxGeometry width="50" height="50" relative="1" as="geometry">
            <mxPoint x="772" y="1770" as="sourcePoint" />
            <mxPoint x="822" y="1770" as="targetPoint" />
          </mxGeometry>
        </mxCell>
        <mxCell id="VFh9iW4sONz-iv-2uf0R-265" value="&lt;font color=&quot;#67ab9f&quot;&gt;&lt;span style=&quot;font-size: 25px;&quot;&gt;&lt;b&gt;Prescribe :&amp;nbsp;&lt;/b&gt;&lt;/span&gt;&lt;/font&gt;" style="text;html=1;align=center;verticalAlign=middle;whiteSpace=wrap;rounded=0;rotation=0;" parent="1" vertex="1">
          <mxGeometry x="-95" y="1730" width="160" height="45" as="geometry" />
        </mxCell>
        <mxCell id="VFh9iW4sONz-iv-2uf0R-266" value="&lt;b&gt;&lt;font style=&quot;font-size: 18px;&quot;&gt;&lt;u&gt;Date&lt;/u&gt;&lt;/font&gt;&lt;/b&gt;" style="shape=partialRectangle;html=1;whiteSpace=wrap;connectable=0;strokeColor=inherit;overflow=hidden;fillColor=none;top=0;left=0;bottom=0;right=0;pointerEvents=1;fontSize=16;" parent="1" vertex="1">
          <mxGeometry x="317" y="1740" width="80" height="40" as="geometry">
            <mxRectangle width="100" height="36" as="alternateBounds" />
          </mxGeometry>
        </mxCell>
        <mxCell id="VFh9iW4sONz-iv-2uf0R-267" value="&lt;span style=&quot;font-size: 18px;&quot;&gt;&lt;b&gt;Trade_Name&lt;/b&gt;&lt;/span&gt;" style="shape=partialRectangle;html=1;whiteSpace=wrap;connectable=0;strokeColor=inherit;overflow=hidden;fillColor=none;top=0;left=0;bottom=0;right=0;pointerEvents=1;fontSize=16;" parent="1" vertex="1">
          <mxGeometry x="482" y="1738" width="115" height="40" as="geometry">
            <mxRectangle width="100" height="36" as="alternateBounds" />
          </mxGeometry>
        </mxCell>
        <mxCell id="VFh9iW4sONz-iv-2uf0R-268" value="&lt;b&gt;&lt;font style=&quot;font-size: 18px;&quot;&gt;Time&lt;/font&gt;&lt;/b&gt;" style="shape=partialRectangle;html=1;whiteSpace=wrap;connectable=0;strokeColor=inherit;overflow=hidden;fillColor=none;top=0;left=0;bottom=0;right=0;pointerEvents=1;fontSize=16;" parent="1" vertex="1">
          <mxGeometry x="390" y="1740" width="100" height="40" as="geometry">
            <mxRectangle width="100" height="36" as="alternateBounds" />
          </mxGeometry>
        </mxCell>
        <mxCell id="VFh9iW4sONz-iv-2uf0R-269" value="&lt;span style=&quot;font-size: 18px;&quot;&gt;&lt;b&gt;Quantity&lt;/b&gt;&lt;/span&gt;" style="shape=partialRectangle;html=1;whiteSpace=wrap;connectable=0;strokeColor=inherit;overflow=hidden;fillColor=none;top=0;left=0;bottom=0;right=0;pointerEvents=1;fontSize=16;" parent="1" vertex="1">
          <mxGeometry x="607" y="1740" width="115" height="40" as="geometry">
            <mxRectangle width="100" height="36" as="alternateBounds" />
          </mxGeometry>
        </mxCell>
        <mxCell id="VFh9iW4sONz-iv-2uf0R-270" value="" style="endArrow=none;html=1;rounded=0;strokeWidth=3;" parent="1" edge="1">
          <mxGeometry width="50" height="50" relative="1" as="geometry">
            <mxPoint x="477" y="1740" as="sourcePoint" />
            <mxPoint x="477" y="1780" as="targetPoint" />
          </mxGeometry>
        </mxCell>
        <mxCell id="VFh9iW4sONz-iv-2uf0R-271" value="" style="endArrow=none;html=1;rounded=0;strokeWidth=3;entryX=0.688;entryY=1.014;entryDx=0;entryDy=0;entryPerimeter=0;" parent="1" target="VFh9iW4sONz-iv-2uf0R-257" edge="1">
          <mxGeometry width="50" height="50" relative="1" as="geometry">
            <mxPoint x="607" y="1740" as="sourcePoint" />
            <mxPoint x="487" y="1790" as="targetPoint" />
          </mxGeometry>
        </mxCell>
        <mxCell id="VFh9iW4sONz-iv-2uf0R-272" value="" style="endArrow=none;html=1;rounded=0;strokeWidth=3;" parent="1" edge="1">
          <mxGeometry width="50" height="50" relative="1" as="geometry">
            <mxPoint x="397" y="1740" as="sourcePoint" />
            <mxPoint x="397" y="1780" as="targetPoint" />
          </mxGeometry>
        </mxCell>
        <mxCell id="VFh9iW4sONz-iv-2uf0R-288" value="" style="shape=table;startSize=0;container=1;collapsible=0;childLayout=tableLayout;fontSize=16;strokeWidth=3;" parent="1" vertex="1">
          <mxGeometry x="100" y="1910" width="740" height="40" as="geometry" />
        </mxCell>
        <mxCell id="VFh9iW4sONz-iv-2uf0R-289" value="" style="shape=tableRow;horizontal=0;startSize=0;swimlaneHead=0;swimlaneBody=0;strokeColor=inherit;top=0;left=0;bottom=0;right=0;collapsible=0;dropTarget=0;fillColor=none;points=[[0,0.5],[1,0.5]];portConstraint=eastwest;fontSize=16;" parent="VFh9iW4sONz-iv-2uf0R-288" vertex="1">
          <mxGeometry width="740" height="40" as="geometry" />
        </mxCell>
        <mxCell id="VFh9iW4sONz-iv-2uf0R-290" value="&lt;font size=&quot;1&quot; style=&quot;&quot;&gt;&lt;b style=&quot;font-size: 18px;&quot;&gt;&lt;u&gt;Company_ID&lt;/u&gt;&lt;/b&gt;&lt;/font&gt;" style="shape=partialRectangle;html=1;whiteSpace=wrap;connectable=0;strokeColor=inherit;overflow=hidden;fillColor=none;top=0;left=0;bottom=0;right=0;pointerEvents=1;fontSize=16;" parent="VFh9iW4sONz-iv-2uf0R-289" vertex="1">
          <mxGeometry width="130" height="40" as="geometry">
            <mxRectangle width="130" height="40" as="alternateBounds" />
          </mxGeometry>
        </mxCell>
        <mxCell id="VFh9iW4sONz-iv-2uf0R-291" value="" style="shape=partialRectangle;html=1;whiteSpace=wrap;connectable=0;strokeColor=inherit;overflow=hidden;fillColor=none;top=0;left=0;bottom=0;right=0;pointerEvents=1;fontSize=16;" parent="VFh9iW4sONz-iv-2uf0R-289" vertex="1">
          <mxGeometry x="130" width="110" height="40" as="geometry">
            <mxRectangle width="110" height="40" as="alternateBounds" />
          </mxGeometry>
        </mxCell>
        <mxCell id="VFh9iW4sONz-iv-2uf0R-292" value="" style="shape=partialRectangle;html=1;whiteSpace=wrap;connectable=0;strokeColor=inherit;overflow=hidden;fillColor=none;top=0;left=0;bottom=0;right=0;pointerEvents=1;fontSize=16;" parent="VFh9iW4sONz-iv-2uf0R-289" vertex="1">
          <mxGeometry x="240" width="500" height="40" as="geometry">
            <mxRectangle width="500" height="40" as="alternateBounds" />
          </mxGeometry>
        </mxCell>
        <mxCell id="VFh9iW4sONz-iv-2uf0R-293" value="&lt;font size=&quot;1&quot; style=&quot;&quot;&gt;&lt;b style=&quot;font-size: 18px;&quot;&gt;Phar_ID&lt;/b&gt;&lt;/font&gt;" style="shape=partialRectangle;html=1;whiteSpace=wrap;connectable=0;strokeColor=inherit;overflow=hidden;fillColor=none;top=0;left=0;bottom=0;right=0;pointerEvents=1;fontSize=16;" parent="1" vertex="1">
          <mxGeometry x="240" y="1911" width="90" height="39" as="geometry">
            <mxRectangle width="100" height="36" as="alternateBounds" />
          </mxGeometry>
        </mxCell>
        <mxCell id="VFh9iW4sONz-iv-2uf0R-294" value="" style="shape=partialRectangle;html=1;whiteSpace=wrap;connectable=0;strokeColor=inherit;overflow=hidden;fillColor=none;top=0;left=0;bottom=0;right=0;pointerEvents=1;fontSize=16;" parent="1" vertex="1">
          <mxGeometry x="410" y="1910" width="66" height="42" as="geometry">
            <mxRectangle width="100" height="36" as="alternateBounds" />
          </mxGeometry>
        </mxCell>
        <mxCell id="VFh9iW4sONz-iv-2uf0R-295" value="" style="endArrow=none;dashed=1;html=1;dashPattern=1 3;strokeWidth=2;rounded=0;endSize=10;" parent="1" edge="1">
          <mxGeometry width="50" height="50" relative="1" as="geometry">
            <mxPoint x="775" y="1942" as="sourcePoint" />
            <mxPoint x="825" y="1942" as="targetPoint" />
          </mxGeometry>
        </mxCell>
        <mxCell id="VFh9iW4sONz-iv-2uf0R-296" value="&lt;b&gt;&lt;font style=&quot;font-size: 18px;&quot;&gt;Start_Date&lt;/font&gt;&lt;/b&gt;" style="shape=partialRectangle;html=1;whiteSpace=wrap;connectable=0;strokeColor=inherit;overflow=hidden;fillColor=none;top=0;left=0;bottom=0;right=0;pointerEvents=1;fontSize=16;" parent="1" vertex="1">
          <mxGeometry x="365" y="1911" width="95" height="40" as="geometry">
            <mxRectangle width="100" height="36" as="alternateBounds" />
          </mxGeometry>
        </mxCell>
        <mxCell id="VFh9iW4sONz-iv-2uf0R-297" value="&lt;span style=&quot;font-size: 18px;&quot;&gt;&lt;b&gt;End_Date&lt;/b&gt;&lt;/span&gt;" style="shape=partialRectangle;html=1;whiteSpace=wrap;connectable=0;strokeColor=inherit;overflow=hidden;fillColor=none;top=0;left=0;bottom=0;right=0;pointerEvents=1;fontSize=16;" parent="1" vertex="1">
          <mxGeometry x="485" y="1910" width="115" height="40" as="geometry">
            <mxRectangle width="100" height="36" as="alternateBounds" />
          </mxGeometry>
        </mxCell>
        <mxCell id="VFh9iW4sONz-iv-2uf0R-300" value="" style="endArrow=none;html=1;rounded=0;strokeWidth=3;" parent="1" edge="1">
          <mxGeometry width="50" height="50" relative="1" as="geometry">
            <mxPoint x="480" y="1912" as="sourcePoint" />
            <mxPoint x="480" y="1952" as="targetPoint" />
          </mxGeometry>
        </mxCell>
        <mxCell id="VFh9iW4sONz-iv-2uf0R-303" value="&lt;font color=&quot;#67ab9f&quot;&gt;&lt;span style=&quot;font-size: 25px;&quot;&gt;&lt;b&gt;Phar_&lt;/b&gt;&lt;/span&gt;&lt;/font&gt;&lt;b style=&quot;font-size: 25px; color: rgb(103, 171, 159); background-color: initial;&quot;&gt;Contract_&lt;/b&gt;&lt;div&gt;&lt;b style=&quot;font-size: 25px; color: rgb(103, 171, 159); background-color: initial;&quot;&gt;Drug-Manufacturer:&amp;nbsp;&lt;/b&gt;&lt;/div&gt;" style="text;html=1;align=center;verticalAlign=middle;whiteSpace=wrap;rounded=0;rotation=0;" parent="1" vertex="1">
          <mxGeometry x="-150" y="1900" width="250" height="50" as="geometry" />
        </mxCell>
        <mxCell id="VFh9iW4sONz-iv-2uf0R-304" value="" style="shape=table;startSize=0;container=1;collapsible=0;childLayout=tableLayout;fontSize=16;strokeWidth=3;" parent="1" vertex="1">
          <mxGeometry x="97" y="2058" width="740" height="40" as="geometry" />
        </mxCell>
        <mxCell id="VFh9iW4sONz-iv-2uf0R-305" value="" style="shape=tableRow;horizontal=0;startSize=0;swimlaneHead=0;swimlaneBody=0;strokeColor=inherit;top=0;left=0;bottom=0;right=0;collapsible=0;dropTarget=0;fillColor=none;points=[[0,0.5],[1,0.5]];portConstraint=eastwest;fontSize=16;" parent="VFh9iW4sONz-iv-2uf0R-304" vertex="1">
          <mxGeometry width="740" height="40" as="geometry" />
        </mxCell>
        <mxCell id="VFh9iW4sONz-iv-2uf0R-306" value="&lt;font size=&quot;1&quot; style=&quot;&quot;&gt;&lt;b style=&quot;font-size: 18px;&quot;&gt;&lt;u&gt;Phar_ID&lt;/u&gt;&lt;/b&gt;&lt;/font&gt;" style="shape=partialRectangle;html=1;whiteSpace=wrap;connectable=0;strokeColor=inherit;overflow=hidden;fillColor=none;top=0;left=0;bottom=0;right=0;pointerEvents=1;fontSize=16;" parent="VFh9iW4sONz-iv-2uf0R-305" vertex="1">
          <mxGeometry width="110" height="40" as="geometry">
            <mxRectangle width="110" height="40" as="alternateBounds" />
          </mxGeometry>
        </mxCell>
        <mxCell id="VFh9iW4sONz-iv-2uf0R-307" value="" style="shape=partialRectangle;html=1;whiteSpace=wrap;connectable=0;strokeColor=inherit;overflow=hidden;fillColor=none;top=0;left=0;bottom=0;right=0;pointerEvents=1;fontSize=16;" parent="VFh9iW4sONz-iv-2uf0R-305" vertex="1">
          <mxGeometry x="110" width="153" height="40" as="geometry">
            <mxRectangle width="153" height="40" as="alternateBounds" />
          </mxGeometry>
        </mxCell>
        <mxCell id="VFh9iW4sONz-iv-2uf0R-308" value="" style="shape=partialRectangle;html=1;whiteSpace=wrap;connectable=0;strokeColor=inherit;overflow=hidden;fillColor=none;top=0;left=0;bottom=0;right=0;pointerEvents=1;fontSize=16;" parent="VFh9iW4sONz-iv-2uf0R-305" vertex="1">
          <mxGeometry x="263" width="477" height="40" as="geometry">
            <mxRectangle width="477" height="40" as="alternateBounds" />
          </mxGeometry>
        </mxCell>
        <mxCell id="VFh9iW4sONz-iv-2uf0R-309" value="&lt;b style=&quot;font-size: 18px;&quot;&gt;&lt;u&gt;Trade_Name&lt;/u&gt;&lt;/b&gt;" style="shape=partialRectangle;html=1;whiteSpace=wrap;connectable=0;strokeColor=inherit;overflow=hidden;fillColor=none;top=0;left=0;bottom=0;right=0;pointerEvents=1;fontSize=16;" parent="1" vertex="1">
          <mxGeometry x="220" y="2055" width="120" height="40" as="geometry">
            <mxRectangle width="100" height="36" as="alternateBounds" />
          </mxGeometry>
        </mxCell>
        <mxCell id="VFh9iW4sONz-iv-2uf0R-310" value="" style="shape=partialRectangle;html=1;whiteSpace=wrap;connectable=0;strokeColor=inherit;overflow=hidden;fillColor=none;top=0;left=0;bottom=0;right=0;pointerEvents=1;fontSize=16;" parent="1" vertex="1">
          <mxGeometry x="407" y="2058" width="66" height="42" as="geometry">
            <mxRectangle width="100" height="36" as="alternateBounds" />
          </mxGeometry>
        </mxCell>
        <mxCell id="VFh9iW4sONz-iv-2uf0R-311" value="" style="endArrow=none;dashed=1;html=1;dashPattern=1 3;strokeWidth=2;rounded=0;endSize=10;" parent="1" edge="1">
          <mxGeometry width="50" height="50" relative="1" as="geometry">
            <mxPoint x="772" y="2090" as="sourcePoint" />
            <mxPoint x="822" y="2090" as="targetPoint" />
          </mxGeometry>
        </mxCell>
        <mxCell id="VFh9iW4sONz-iv-2uf0R-312" value="&lt;font color=&quot;#67ab9f&quot;&gt;&lt;span style=&quot;font-size: 25px;&quot;&gt;&lt;b&gt;Phar_sell_Drug :&lt;/b&gt;&lt;/span&gt;&lt;/font&gt;" style="text;html=1;align=center;verticalAlign=middle;whiteSpace=wrap;rounded=0;rotation=0;" parent="1" vertex="1">
          <mxGeometry x="-140" y="2050" width="220" height="45" as="geometry" />
        </mxCell>
        <mxCell id="VFh9iW4sONz-iv-2uf0R-315" value="&lt;b&gt;&lt;font style=&quot;font-size: 18px;&quot;&gt;Price&lt;/font&gt;&lt;/b&gt;" style="shape=partialRectangle;html=1;whiteSpace=wrap;connectable=0;strokeColor=inherit;overflow=hidden;fillColor=none;top=0;left=0;bottom=0;right=0;pointerEvents=1;fontSize=16;" parent="1" vertex="1">
          <mxGeometry x="367.5" y="2058" width="100" height="40" as="geometry">
            <mxRectangle width="100" height="36" as="alternateBounds" />
          </mxGeometry>
        </mxCell>
        <mxCell id="VFh9iW4sONz-iv-2uf0R-323" value="" style="edgeStyle=elbowEdgeStyle;elbow=horizontal;endArrow=classic;html=1;curved=0;rounded=0;endSize=8;startSize=8;fillColor=#cce5ff;strokeColor=none;strokeWidth=2;fontColor=#FFFFFF;" parent="1" edge="1">
          <mxGeometry width="50" height="50" relative="1" as="geometry">
            <mxPoint x="775" y="725" as="sourcePoint" />
            <mxPoint x="150" y="840" as="targetPoint" />
            <Array as="points">
              <mxPoint x="775" y="810" />
            </Array>
          </mxGeometry>
        </mxCell>
        <mxCell id="VFh9iW4sONz-iv-2uf0R-327" value="" style="edgeStyle=elbowEdgeStyle;elbow=vertical;endArrow=classic;html=1;curved=0;rounded=0;endSize=8;startSize=8;spacing=3;strokeWidth=3;entryX=0.027;entryY=-0.038;entryDx=0;entryDy=0;entryPerimeter=0;" parent="1" target="VFh9iW4sONz-iv-2uf0R-167" edge="1">
          <mxGeometry width="50" height="50" relative="1" as="geometry">
            <mxPoint x="810" y="730" as="sourcePoint" />
            <mxPoint x="120" y="770" as="targetPoint" />
            <Array as="points">
              <mxPoint x="464" y="790" />
            </Array>
          </mxGeometry>
        </mxCell>
        <mxCell id="VFh9iW4sONz-iv-2uf0R-331" value="&lt;b&gt;&lt;font style=&quot;font-size: 18px;&quot;&gt;&lt;u&gt;Trade_Name&lt;/u&gt;&lt;/font&gt;&lt;/b&gt;" style="rounded=0;whiteSpace=wrap;html=1;strokeWidth=3;align=left;" parent="1" vertex="1">
          <mxGeometry x="87" y="1020" width="753" height="40" as="geometry" />
        </mxCell>
        <mxCell id="VFh9iW4sONz-iv-2uf0R-332" value="&lt;b&gt;&lt;font style=&quot;font-size: 18px;&quot;&gt;Start_Date&lt;/font&gt;&lt;/b&gt;&lt;span style=&quot;color: rgba(0, 0, 0, 0); font-family: monospace; font-size: 0px; text-align: start; text-wrap: nowrap;&quot;&gt;%3CmxGraphModel%3E%3Croot%3E%3CmxCell%20id%3D%220%22%2F%3E%3CmxCell%20id%3D%221%22%20parent%3D%220%22%2F%3E%3CmxCell%20id%3D%222%22%20value%3D%22%26lt%3Bb%26gt%3B%26lt%3Bfont%20style%3D%26quot%3Bfont-size%3A%2018px%3B%26quot%3B%26gt%3BPhar_ID%26lt%3B%2Ffont%26gt%3B%26lt%3B%2Fb%26gt%3B%22%20style%3D%22shape%3DpartialRectangle%3Bhtml%3D1%3BwhiteSpace%3Dwrap%3Bconnectable%3D0%3BstrokeColor%3Dinherit%3Boverflow%3Dhidden%3BfillColor%3Dnone%3Btop%3D0%3Bleft%3D0%3Bbottom%3D0%3Bright%3D0%3BpointerEvents%3D1%3BfontSize%3D16%3B%22%20vertex%3D%221%22%20parent%3D%221%22%3E%3CmxGeometry%20x%3D%22360%22%20y%3D%221542%22%20width%3D%22100%22%20height%3D%2240%22%20as%3D%22geometry%22%3E%3CmxRectangle%20width%3D%22100%22%20height%3D%2236%22%20as%3D%22alternateBounds%22%2F%3E%3C%2FmxGeometry%3E%3C%2FmxCell%3E%3C%2Froot%3E%3C%2FmxGraphModel%3E&lt;/span&gt;" style="shape=partialRectangle;html=1;whiteSpace=wrap;connectable=0;strokeColor=inherit;overflow=hidden;fillColor=none;top=0;left=0;bottom=0;right=0;pointerEvents=1;fontSize=16;" parent="1" vertex="1">
          <mxGeometry x="473" y="1541" width="100" height="40" as="geometry">
            <mxRectangle width="100" height="36" as="alternateBounds" />
          </mxGeometry>
        </mxCell>
        <mxCell id="VFh9iW4sONz-iv-2uf0R-333" value="&lt;b&gt;&lt;font style=&quot;font-size: 18px;&quot;&gt;End_Date&lt;/font&gt;&lt;/b&gt;&lt;span style=&quot;color: rgba(0, 0, 0, 0); font-family: monospace; font-size: 0px; text-align: start; text-wrap: nowrap;&quot;&gt;%3CmxGraphModel%3E%3Croot%3E%3CmxCell%20id%3D%220%22%2F%3E%3CmxCell%20id%3D%221%22%20parent%3D%220%22%2F%3E%3CmxCell%20id%3D%222%22%20value%3D%22%26lt%3Bb%26gt%3B%26lt%3Bfont%20style%3D%26quot%3Bfont-size%3A%2018px%3B%26quot%3B%26gt%3BPhar_ID%26lt%3B%2Ffont%26gt%3B%26lt%3B%2Fb%26gt%3B%22%20style%3D%22shape%3DpartialRectangle%3Bhtml%3D1%3BwhiteSpace%3Dwrap%3Bconnectable%3D0%3BstrokeColor%3Dinherit%3Boverflow%3Dhidden%3BfillColor%3Dnone%3Btop%3D0%3Bleft%3D0%3Bbottom%3D0%3Bright%3D0%3BpointerEvents%3D1%3BfontSize%3D16%3B%22%20vertex%3D%221%22%20parent%3D%221%22%3E%3CmxGeometry%20x%3D%22360%22%20y%3D%221542%22%20width%3D%22100%22%20height%3D%2240%22%20as%3D%22geometry%22%3E%3CmxRectangle%20width%3D%22100%22%20height%3D%2236%22%20as%3D%22alternateBounds%22%2F%3E%3C%2FmxGeometry%3E%3C%2FmxCell%3E%3C%2Froot%3E%3C%2FmxGraphModel%3E&lt;/span&gt;" style="shape=partialRectangle;html=1;whiteSpace=wrap;connectable=0;strokeColor=inherit;overflow=hidden;fillColor=none;top=0;left=0;bottom=0;right=0;pointerEvents=1;fontSize=16;" parent="1" vertex="1">
          <mxGeometry x="597" y="1541" width="100" height="40" as="geometry">
            <mxRectangle width="100" height="36" as="alternateBounds" />
          </mxGeometry>
        </mxCell>
        <mxCell id="VFh9iW4sONz-iv-2uf0R-334" value="" style="endArrow=none;html=1;rounded=0;strokeWidth=3;" parent="1" edge="1">
          <mxGeometry width="50" height="50" relative="1" as="geometry">
            <mxPoint x="460" y="1580" as="sourcePoint" />
            <mxPoint x="460" y="1540" as="targetPoint" />
          </mxGeometry>
        </mxCell>
        <mxCell id="VFh9iW4sONz-iv-2uf0R-336" value="" style="endArrow=none;dashed=1;html=1;dashPattern=1 3;strokeWidth=2;rounded=0;" parent="1" edge="1">
          <mxGeometry width="50" height="50" relative="1" as="geometry">
            <mxPoint x="380" y="1570" as="sourcePoint" />
            <mxPoint x="440" y="1570" as="targetPoint" />
          </mxGeometry>
        </mxCell>
        <mxCell id="VFh9iW4sONz-iv-2uf0R-337" value="" style="edgeStyle=elbowEdgeStyle;elbow=vertical;endArrow=classic;html=1;curved=0;rounded=0;endSize=8;startSize=8;strokeWidth=3;" parent="1" edge="1">
          <mxGeometry width="50" height="50" relative="1" as="geometry">
            <mxPoint x="400" y="1540" as="sourcePoint" />
            <mxPoint x="110" y="1420" as="targetPoint" />
            <Array as="points">
              <mxPoint x="250" y="1520" />
            </Array>
          </mxGeometry>
        </mxCell>
        <mxCell id="VFh9iW4sONz-iv-2uf0R-338" value="" style="edgeStyle=segmentEdgeStyle;endArrow=classic;html=1;curved=0;rounded=0;endSize=8;startSize=8;strokeWidth=3;" parent="1" edge="1">
          <mxGeometry width="50" height="50" relative="1" as="geometry">
            <mxPoint x="260" y="1780" as="sourcePoint" />
            <mxPoint x="160" y="850" as="targetPoint" />
            <Array as="points">
              <mxPoint x="258" y="1810" />
              <mxPoint x="898" y="1810" />
              <mxPoint x="898" y="810" />
              <mxPoint x="160" y="810" />
            </Array>
          </mxGeometry>
        </mxCell>
        <mxCell id="VFh9iW4sONz-iv-2uf0R-340" value="" style="edgeStyle=segmentEdgeStyle;endArrow=classic;html=1;curved=0;rounded=0;endSize=8;startSize=8;exitX=0.057;exitY=1.088;exitDx=0;exitDy=0;exitPerimeter=0;strokeWidth=3;" parent="1" source="VFh9iW4sONz-iv-2uf0R-258" edge="1">
          <mxGeometry width="50" height="50" relative="1" as="geometry">
            <mxPoint x="140" y="2100" as="sourcePoint" />
            <mxPoint x="130" y="680" as="targetPoint" />
            <Array as="points">
              <mxPoint x="139" y="1830" />
              <mxPoint x="940" y="1830" />
              <mxPoint x="940" y="630" />
              <mxPoint x="130" y="630" />
            </Array>
          </mxGeometry>
        </mxCell>
        <mxCell id="VFh9iW4sONz-iv-2uf0R-347" value="" style="edgeStyle=segmentEdgeStyle;endArrow=classic;html=1;curved=0;rounded=0;endSize=8;startSize=8;strokeWidth=3;" parent="1" edge="1">
          <mxGeometry width="50" height="50" relative="1" as="geometry">
            <mxPoint x="120" y="2050" as="sourcePoint" />
            <mxPoint x="130" y="1360" as="targetPoint" />
            <Array as="points">
              <mxPoint x="120" y="2020" />
              <mxPoint x="-170" y="2020" />
              <mxPoint x="-170" y="1320" />
              <mxPoint x="130" y="1320" />
            </Array>
          </mxGeometry>
        </mxCell>
        <mxCell id="VFh9iW4sONz-iv-2uf0R-350" value="" style="edgeStyle=segmentEdgeStyle;endArrow=classic;html=1;curved=0;rounded=0;endSize=8;startSize=8;strokeWidth=3;" parent="1" edge="1">
          <mxGeometry width="50" height="50" relative="1" as="geometry">
            <mxPoint x="530" y="1730" as="sourcePoint" />
            <mxPoint x="150" y="1020" as="targetPoint" />
            <Array as="points">
              <mxPoint x="534" y="1730" />
              <mxPoint x="534" y="1700" />
              <mxPoint x="860" y="1700" />
              <mxPoint x="860" y="970" />
              <mxPoint x="150" y="970" />
            </Array>
          </mxGeometry>
        </mxCell>
        <mxCell id="VFh9iW4sONz-iv-2uf0R-351" value="" style="edgeStyle=segmentEdgeStyle;endArrow=classic;html=1;curved=0;rounded=0;endSize=8;startSize=8;strokeWidth=3;entryX=0.084;entryY=-0.05;entryDx=0;entryDy=0;entryPerimeter=0;" parent="1" target="VFh9iW4sONz-iv-2uf0R-228" edge="1">
          <mxGeometry width="50" height="50" relative="1" as="geometry">
            <mxPoint x="170" y="1910" as="sourcePoint" />
            <mxPoint x="-240" y="815.6356375558036" as="targetPoint" />
            <Array as="points">
              <mxPoint x="170" y="1890" />
              <mxPoint x="-100" y="1890" />
              <mxPoint x="-100" y="1640" />
              <mxPoint x="840" y="1640" />
              <mxPoint x="840" y="1130" />
              <mxPoint x="152" y="1130" />
            </Array>
          </mxGeometry>
        </mxCell>
        <mxCell id="VFh9iW4sONz-iv-2uf0R-352" value="" style="shape=partialRectangle;whiteSpace=wrap;html=1;bottom=1;right=1;left=1;top=0;fillColor=none;routingCenterX=-0.5;strokeWidth=3;" parent="1" vertex="1">
          <mxGeometry x="-170" y="1952" width="455" height="68" as="geometry" />
        </mxCell>
        <mxCell id="VFh9iW4sONz-iv-2uf0R-353" value="" style="edgeStyle=segmentEdgeStyle;endArrow=classic;html=1;curved=0;rounded=0;endSize=8;startSize=8;strokeWidth=3;" parent="1" edge="1">
          <mxGeometry width="50" height="50" relative="1" as="geometry">
            <mxPoint x="270" y="2100" as="sourcePoint" />
            <mxPoint x="120" y="1010" as="targetPoint" />
            <Array as="points">
              <mxPoint x="270" y="2100" />
              <mxPoint x="270" y="2140" />
              <mxPoint x="-200" y="2140" />
              <mxPoint x="-200" y="970" />
              <mxPoint x="120" y="970" />
            </Array>
          </mxGeometry>
        </mxCell>
        <mxCell id="VFh9iW4sONz-iv-2uf0R-354" value="&lt;span style=&quot;font-size: 18px;&quot;&gt;&lt;b&gt;Company_ID&lt;/b&gt;&lt;/span&gt;" style="shape=partialRectangle;html=1;whiteSpace=wrap;connectable=0;strokeColor=inherit;overflow=hidden;fillColor=none;top=0;left=0;bottom=0;right=0;pointerEvents=1;fontSize=16;" parent="1" vertex="1">
          <mxGeometry x="235" y="1020" width="125" height="40" as="geometry">
            <mxRectangle width="90" height="40" as="alternateBounds" />
          </mxGeometry>
        </mxCell>
        <mxCell id="VFh9iW4sONz-iv-2uf0R-355" value="" style="endArrow=none;html=1;rounded=0;strokeWidth=3;exitX=0.179;exitY=1.004;exitDx=0;exitDy=0;exitPerimeter=0;entryX=0.179;entryY=0;entryDx=0;entryDy=0;entryPerimeter=0;" parent="1" source="VFh9iW4sONz-iv-2uf0R-331" target="VFh9iW4sONz-iv-2uf0R-331" edge="1">
          <mxGeometry width="50" height="50" relative="1" as="geometry">
            <mxPoint x="167.9" y="1055" as="sourcePoint" />
            <mxPoint x="229.99999999999991" y="1025" as="targetPoint" />
          </mxGeometry>
        </mxCell>
        <mxCell id="VFh9iW4sONz-iv-2uf0R-356" value="" style="edgeStyle=segmentEdgeStyle;endArrow=classic;html=1;curved=0;rounded=0;endSize=8;startSize=8;entryX=1;entryY=0.25;entryDx=0;entryDy=0;strokeWidth=3;" parent="1" target="VFh9iW4sONz-iv-2uf0R-233" edge="1">
          <mxGeometry width="50" height="50" relative="1" as="geometry">
            <mxPoint x="280" y="1070" as="sourcePoint" />
            <mxPoint x="280" y="1080" as="targetPoint" />
            <Array as="points">
              <mxPoint x="280" y="1090" />
              <mxPoint x="130" y="1090" />
            </Array>
          </mxGeometry>
        </mxCell>
        <mxCell id="VFh9iW4sONz-iv-2uf0R-357" value="" style="endArrow=none;dashed=1;html=1;dashPattern=1 3;strokeWidth=5;rounded=0;" parent="1" edge="1">
          <mxGeometry width="50" height="50" relative="1" as="geometry">
            <mxPoint x="240" y="1055" as="sourcePoint" />
            <mxPoint x="350" y="1055" as="targetPoint" />
          </mxGeometry>
        </mxCell>
        <mxCell id="hmLSFhecp9R-JtplmPN9-8" value="&lt;font size=&quot;1&quot; style=&quot;&quot;&gt;&lt;b style=&quot;font-size: 18px;&quot;&gt;Company_id&lt;/b&gt;&lt;/font&gt;" style="shape=partialRectangle;html=1;whiteSpace=wrap;connectable=0;strokeColor=inherit;overflow=hidden;fillColor=none;top=0;left=0;bottom=0;right=0;pointerEvents=1;fontSize=16;" parent="1" vertex="1">
          <mxGeometry x="820" y="680" width="110" height="40" as="geometry">
            <mxRectangle width="100" height="36" as="alternateBounds" />
          </mxGeometry>
        </mxCell>
        <mxCell id="hmLSFhecp9R-JtplmPN9-15" value="" style="endArrow=none;html=1;rounded=0;strokeWidth=3;" parent="1" edge="1">
          <mxGeometry width="50" height="50" relative="1" as="geometry">
            <mxPoint x="810" y="720" as="sourcePoint" />
            <mxPoint x="810" y="680" as="targetPoint" />
          </mxGeometry>
        </mxCell>
        <mxCell id="hmLSFhecp9R-JtplmPN9-16" value="" style="edgeStyle=segmentEdgeStyle;endArrow=classic;html=1;curved=0;rounded=0;endSize=8;startSize=8;strokeWidth=3;" parent="1" edge="1">
          <mxGeometry width="50" height="50" relative="1" as="geometry">
            <mxPoint x="900" y="720" as="sourcePoint" />
            <mxPoint x="190" y="1200" as="targetPoint" />
            <Array as="points">
              <mxPoint x="900" y="770" />
              <mxPoint x="990" y="770" />
              <mxPoint x="990" y="1170" />
              <mxPoint x="190" y="1170" />
            </Array>
          </mxGeometry>
        </mxCell>
        <mxCell id="hmLSFhecp9R-JtplmPN9-17" value="" style="endArrow=none;dashed=1;html=1;dashPattern=1 3;strokeWidth=5;rounded=0;" parent="1" edge="1">
          <mxGeometry width="50" height="50" relative="1" as="geometry">
            <mxPoint x="820" y="715" as="sourcePoint" />
            <mxPoint x="930" y="715" as="targetPoint" />
          </mxGeometry>
        </mxCell>
      </root>
    </mxGraphModel>
  </diagram>
</mxfile>
